<svg xmlns="http://www.w3.org/2000/svg" width="722.88" viewBox="0 0 722.87543 180.34014"><defs><clipPath><path fill="#5a33c9" d="m-1285.53 61.76h900v371.5h-900z"/></clipPath><clipPath><path opacity=".727" fill="#7d1f7d" d="m-826.38 651.09h321.31v110.92h-321.31z"/></clipPath></defs><g transform="translate(-104.63-1705.34)"><g font-family="sans-serif" word-spacing="0" line-height="125%" letter-spacing="0" font-size="40"><text x="-1916.35" y="472.97"><tspan x="-1916.35" y="472.97"/></text><text x="-2744.35" y="474.25"><tspan x="-2744.35" y="474.25"/></text><text x="-497.28" y="723.93"><tspan x="-497.28" y="723.93"/></text><flowRoot transform="translate(-1-1)"><flowRegion><path d="m-938.78 806.96h263.83v147.29h-263.83z"/></flowRegion><flowPara/></flowRoot><g transform="translate(0 2947.64)"><text x="701.57" y="-2326.18" writing-mode="tb-rl"><tspan x="-2326.18" y="701.57"/></text><text x="621.16" y="-483.1"><tspan x="621.16" y="-483.1"/></text><flowRoot transform="translate(-1-2948.64)"><flowRegion><path d="m246.33 2498.14h112.3v82.41h-112.3z"/></flowRegion><flowPara>Úģ»’”„‚'''''[</flowPara></flowRoot><text x="612.67" y="-2323.95"><tspan x="612.67" y="-2323.95"/></text></g></g><g transform="matrix(.29506 0 0 .25492 162.59 1559.22)"><path d="m1924.37 821.47c100.87 9.411 207.88 28.6 301.07 39.948 65.762-2.732-1.916 59.03-21.829 81.81-40.03 35.95-78.12 73.77-117.72 110.49 19.918 13.756 33.632 41.909 47.655 63.921 24.849 38.1 44.605 70.07 68.24 109.43 55.762 72.62 16.745 54.04-117.18 43.07-46.634 12.427-92.95 3.63-140.57 1.66-32.763-2.19-131.83-9.842-189.7-4.855-29.878-.551-80.17 18.13-72.931-28.01-8.08-52.749 21.698-126.91-11.664-163.92-13.9-149.16 132.87-259.96 254.63-253.55m-1549.33 216.34c-14.275 95.68-3.692 142.04-16.912 184.1 18.15 37.586 4.359 34.37-28.473 36.492-46.843-8.873-92.63-10.171-142.75-8.869-40.741 13.333-94.96-.632-141.16 6.343-32.28 11.205-67.61.471-92.27 9.996-33.936.426-55.26 13.648-90.88 13.237-29.79-5.114-34.07-23.19-9.248-44.617 19.702-16.419 37.586-32.9 51.958-57.34 25.547-41.18 60.39-65.933 89.12-102.12-13.778-11.322-28.851-33.798-41.13-42.737-7.82-10.482-26.814-18.226-40.615-34.27-12.522-10.73-16.963-15.708-31.691-29.17-16.666-11.918-11.05-9.662-33.887-24.784-11.603-13.746-36.914-19.322-43.18-42.901-2.661-30.857 9.967-32.444 28.436-28.791 36.881-2.536 75.14-8.267 108.91-16.697 23.902.532 49.29-10.313 67.837-9.503 45.47-15.11 71.13-2.188 152.93-17.445 32.15-6.606 215.83 90.44 213 209.07" fill="#f3f3f3"/><path d="m1900.36 1075.92c4.72 4.082.024 28.672-4.841 35.665-30.632 2.401-41.07 28.725-70.23 41.58-17.848 9.312-36.04 36.871-50.35 40.874-36.07 34.17-49.01 36.36-77.81 65.36-4.2 11.281-26.05 11.876-23.19-20.457-8.08-52.749 21.698-126.91-11.664-163.92 5.35-58.34 20.238-18.768 33.23-20.19 68.787 9.312 164.91 22.713 204.87 21.1m-1579.26-18.581c36.34 5.933 56.55-10.346 56.13 17.514-.873 30.02-3.399 88.989-7.619 147.05 3.823 19.232 4.334 26.807-2.169 31.12-39.496-1.608-53-39.535-74.16-55.21-24.736-17.16-40.784-37.487-65.863-52.24-8.701-16.665-31.783-23.723-49.39-34.426-64.49-59.35 65.768-45.635 143.08-53.811" fill="#757575"/><path d="m1925.02 881.23c-1.692 64.755.016 54.53-7.05 118.59-1.422 11.96-9.628 101.99-20.705 111.02-69.19 6.02-136.05-20.954-206.39-31.992-72.857-15.385-124.75-10.803-182.06-19.405-93.08-13.181-177.93-11.452-270.49-10.701-84.37-6.518-174.18-1.342-255.6-5.81-44.818.799-97.35 4.244-141.27 2.01-37.843-.808-61.49-1.247-100.95 4.04-53.12 4.01-120.26 5.918-165.68 7.965-66.01 6.8-131.6 12.385-205.25 21.07-38.31-4.747-83.35 5.112-116.09 8.635l-75.48 24.494c-47.525-10.671-11.525-25.22-29.1-57.26-3-31.615-13.926-67.75-9.824-101.56-9.714-33.24-8.555-70.12-11.407-121.8-2.852-51.674-.368-110.01.227-105.44 7.521-41.611-32.468-61.48 21.757-72.69 45.03-13.594 90.49-18.677 136.46-28.624 38.762-2.337 85.79-13.889 130.56-13.158 26.995-4.176 57.37-10.07 82.31-12.52 14.644 1.43 62.15.214 88.64-7.185 38.742-1.388 86.88-4.837 119.01-11.976 53.17-4.184 107.3 2.029 155.38-4.5 37.39-2.054 84.79 3.381 126.73-1.136 66.72-.603 136.8 2.458 200.39 1.473 49-2.01 101.72.731 149.88 4.061 34.2 1.832 81.87 1.363 158.69 10.613 76.82 9.25 122.47 6.634 212.88 16.212 90.41 9.579 134.64 11.654 185.08 25.06 45.513 1.494 23.76 64.46 33.452 98.6-1.962 36.561.232 71.75-4.113 151.9" fill="#fff"/></g></g></svg>