<svg xmlns="http://www.w3.org/2000/svg" viewBox="0 0 42.991855 53.86802"><defs><clipPath><path fill="#5a33c9" d="m-1285.53 61.76h900v371.5h-900z"/></clipPath><clipPath><path opacity=".727" fill="#7d1f7d" d="m-826.38 651.09h321.31v110.92h-321.31z"/></clipPath></defs><g transform="translate(-426.5-785.5)" font-family="sans-serif" word-spacing="0" line-height="125%" letter-spacing="0" font-size="40"><text x="-1916.35" y="472.97"><tspan x="-1916.35" y="472.97"/></text><text x="-2744.35" y="474.25"><tspan x="-2744.35" y="474.25"/></text><text x="-497.28" y="723.93"><tspan x="-497.28" y="723.93"/></text><flowRoot transform="translate(-1-1)"><flowRegion><path d="m-938.78 806.96h263.83v147.29h-263.83z"/></flowRegion><flowPara/></flowRoot></g><g transform="matrix(.02762 0 0 .02762 95.83 3.401)"><path d="m-2085.9 1826.22c-200-5-398.3-27.29-597.5-41.507-138.26-10.262-276.86-17.17-415.62-10.7-41.17-11.795-121.12 5.211-126.25-20.748 2.171-34.736.163-76.16 1.588-113.96 35.764-572.22 75.21-746.89 55.5-1225.07 6.502-50.07.962-127.6-25.455-258.6 325.21-87.19 965.69-56.51 1237.22-56-10.767 57.897 10.579 143.19 5.55 181.38 7.544 132.8 30.31 264.64 18.04 398.8-2.372 124.76-2.059 250.37-10.07 374.84-2.898 18.13 6.181 49.62-6.64 65.22-1.036 37.31-3.03 50.615.132 90.04-1.821 27.314-3.209 68.01-3.988 101.59.504 52.49-.699 97.64-9.49 148.32-6.985 70.54-4.26 151.27-13.876 223.31-4.228 13.626-.95 56.1-10.968 109.6-10.02 53.51-69.22 26.18-98.17 33.489" fill="#ccc"/><path d="m-3263.72 1568.46c-38.37-4.233-92.67 6.525-126.55-7.144-33.29-10.524-118.82-7.669-56.968-35.659 55.58-68.892 108.49-138.03 142.27-200.56 28.403-48.08 47.58-113.68 65.728-169.94 6.658-30.85 15.596-68.66 22.927-91.64 22.959-89.74 27.624-155.64 32.71-242.76 3.461-69.61 13.03-142.64 18.14-209.78 3.949-61.28-3.751-131.03-2.716-196.74 2.365-67.24-3.14-127.92-15.03-198.47 77.46-10.452 156.05-20.12 231.35-14.15 107.13-12.448 216.45-1.64 323.47-16.179 57.05.132 115.86-1.784 172.38-8.096 51.53-3.763 115.16-1.581 170.43-8.335 102 4.206 203.2-6.781 303.24-15.715-1.349 21.604-2.699 43.21-4.048 64.812 1.041 75.53 10.949 112.83 4.401 225.58-3.616 158.99-16.595 318.39-24.473 477.58.583 120.49-20.744 212.61-39.884 346.1-24.537 180.89-66.933 299.44-133.27 436.13-30.27-14.553-78.11-31.88-120.82-39.826-37.19-7.141-69.33-10.971-105.72-23.561-117.97-27.15-238.48-43.16-358.42-56.804-181.37-6.988-338.92-2.941-499.15-14.847" fill="#fff"/><path d="m-3248.36 182.58c-9.14-83.85-29.03-165.96-37.432-249.95 55.892-1.818 113.32 1.483 168-7.166 38.23-9.218 78.12-.779 116.91-8.624 45.627-5.333 91.19-5.116 136.82-11.07 58.677 2.04 116.61-9.226 175.19-7.997 42.943-.732 88.08.608 131.59-7.585 65.77 3.394 131.8-4.61 197.89-2.662 52.3-3.684 105.14-.309 157.66-6.777 41.07 4.876 85.91-4.81 126.66-1.717 48.49 14.976 117.11-24.315 150.29 17.957 29.428 69.02-5.072 142.61 2.704 213.98 6.549 34.25-8.656 64.33-44.976 55.775-106.3 4.249-212.34 13.189-318.79 12.7-186.91 6.762-373.61 18.41-560.62 22.874-110.82 8.45-222.83-.582-332.62 20.05-36.441 5.983-73.66 10.761-69.3-39.793" fill="#ff6347"/></g></svg>