<svg xmlns="http://www.w3.org/2000/svg" height="59.51" viewBox="0 0 63.159771 59.507756"><defs><clipPath><path fill="#5a33c9" d="m-1285.53 61.76h900v371.5h-900z"/></clipPath><clipPath><path opacity=".727" fill="#7d1f7d" d="m-826.38 651.09h321.31v110.92h-321.31z"/></clipPath></defs><g transform="translate(-127.24-3057.7)" font-family="sans-serif" word-spacing="0" line-height="125%" letter-spacing="0" font-size="40"><text x="-1916.35" y="472.97"><tspan x="-1916.35" y="472.97"/></text><text x="-2744.35" y="474.25"><tspan x="-2744.35" y="474.25"/></text><text x="-497.28" y="723.93"><tspan x="-497.28" y="723.93"/></text><flowRoot transform="translate(-1-1)"><flowRegion><path d="m-938.78 806.96h263.83v147.29h-263.83z"/></flowRegion><flowPara/></flowRoot></g><g transform="translate(-127.24-110.06)"><text x="701.57" y="-2326.18" font-family="sans-serif" word-spacing="0" line-height="125%" letter-spacing="0" font-size="40" writing-mode="tb-rl"><tspan x="-2326.18" y="701.57"/></text><path d="m202.29 959.49c-34.36 16.364-86.19 69.926-118.11 92.17 24.709-77.27 51.39-89.57 109.32-143.45 78.77 7.997 104.72 7.29 190.92 36.893-6.166-23.294-10.937-34.403-12.495-56.01 12.693-19.782 24.285-24.469 50.35-43.46-111.8-62.75-194.61-134.73-199.96-142.05-5.733-110.42 44.785-224.21 56.6-268.74 103.35-92.45 114.4-95.22 264.11-137.31 40.978 6.33 112.14 9.469 179.56 97.33-156.77 38.673-256.13 85.56-241.41 142.73 14.02 49.34 77.1 4.145 106.48 9.742-12.299 41.07-48.34 81.63-72.65 121.56-93.08 10.813-128.51-.743-173.88 10.619-1.051 76.22 133.43 129.39 160.53 113.11 134.3-54.857 307.02-17.394 447.06 60.05 76.78-27.18 121.12-41.747 154.74-107.78-48.51-15.495-90.92-.088-163.89-7.282-36.01-35.987-64.4-55.887-89.89-129.03 53.07-3.374 99.85 10.494 149.64-3.182-43.787-151.64-129.37-170.39-222.8-203.77 45.27-58.42 125.33-54.937 176.69-49.29 74.861 39.21 180.25 78.7 225.2 159.86 16.18 85.24 20.597 149.28 4.807 248.81-39.489 52.37-125.09 97.83-194.37 134.55 20.264 18.445 5.14 16.346 13.753 25.316 10.953 22.92 4.742 31.421.578 62.692 25.746.078 105.68-10.385 143.6 8.762 59.26 52.931 101.96 94.85 128.15 176.27-46.21-70.37-101-108.27-152.47-132.93-45.66-7.57-93.54 3.517-125.92 15.13-2.622 17.446-5.83 15.254-11.668 42.828 77.3 11.778 127.59 56.847 178.59 86.18 28.349 47.744 57.814 101.62 68.882 153.09-47.705-64.69-66.965-81.65-104.36-127.05-34.54-13.503-118.06-40.722-157.53-39.32-3.986 26.467-9.357 39.863-17.388 59.27 49.547 27.942 107.77 52.29 157.43 81.84 18.947 48.98 25.945 39.778 40.916 153.37l-66.19-131.95c-47.712-25.413-97.83-20.742-168.47-42.477-149.9 66.36-258.4 41.724-393.61-17.946-58.881 10.588-97.94 8.969-163.4 35.515-17.814 38.32-43.2 84.7-55.35 125.84-10.684-63.61 11.98-123.77 15.339-158.19 60.63-39.41 108.23-35.894 155.92-52.01-16.613-30.41-23.28-52.22-35.28-83.966-41.876-7.791-107.79-24.411-176.27-26.597-27 27.903-53.73 69.44-86.43 127.16 13.712-103.55 31.32-116.33 63.35-170.26 83.67-9.838 128.43-5.936 181.23 1.549-9.309-31.33-14.437-25.02-21.871-55.18-86.52-37.17-108.93-47.572-198.08-53.02" transform="matrix(.0314-.03485.03485.0314 103.33 135.27)" fill="#ffb57b"/><g font-family="sans-serif" fill="#000" word-spacing="0" line-height="125%" letter-spacing="0" font-size="40"><text x="621.16" y="-483.1"><tspan x="621.16" y="-483.1"/></text><flowRoot transform="translate(-1-2948.64)"><flowRegion><path d="m246.33 2498.14h112.3v82.41h-112.3z"/></flowRegion><flowPara>Úģ»’”„‚'''''[</flowPara></flowRoot><text x="612.67" y="-2323.95"><tspan x="612.67" y="-2323.95"/></text></g></g></svg>