<svg xmlns="http://www.w3.org/2000/svg" height="383.9" viewBox="0 0 900 383.9011"><defs><clipPath><path fill="#5a33c9" d="m-1285.53 61.76h900v371.5h-900z"/></clipPath><clipPath><path opacity=".727" fill="#7d1f7d" d="m-826.38 651.09h321.31v110.92h-321.31z"/></clipPath></defs><g transform="translate(0-3009.44)"><g font-family="sans-serif" word-spacing="0" line-height="125%" letter-spacing="0" font-size="40"><text x="-1916.35" y="472.97"><tspan x="-1916.35" y="472.97"/></text><text x="-2744.35" y="474.25"><tspan x="-2744.35" y="474.25"/></text><text x="-497.28" y="723.93"><tspan x="-497.28" y="723.93"/></text><flowRoot transform="translate(-1-1)"><flowRegion><path d="m-938.78 806.96h263.83v147.29h-263.83z"/></flowRegion><flowPara/></flowRoot></g><path d="m450 3009.44c-150.69.876-301.1 12.955-450 36.14v347.76h900v-346.57c-148.87-23.58-299.28-36.06-450-37.33" fill="#fff0e4"/><g transform="translate(0 2947.64)" font-family="sans-serif" word-spacing="0" line-height="125%" letter-spacing="0" font-size="40"><text x="701.57" y="-2326.18" writing-mode="tb-rl"><tspan x="-2326.18" y="701.57"/></text><text x="621.16" y="-483.1"><tspan x="621.16" y="-483.1"/></text><flowRoot transform="translate(-1-2948.64)"><flowRegion><path d="m246.33 2498.14h112.3v82.41h-112.3z"/></flowRegion><flowPara>Úģ»’”„‚'''''[</flowPara></flowRoot><text x="612.67" y="-2323.95"><tspan x="612.67" y="-2323.95"/></text></g></g></svg>