<svg xmlns="http://www.w3.org/2000/svg" viewBox="0 0 23.977186 46.812226"><defs><clipPath><path fill="#5a33c9" d="m-1285.53 61.76h900v371.5h-900z"/></clipPath><clipPath><path opacity=".727" fill="#7d1f7d" d="m-826.38 651.09h321.31v110.92h-321.31z"/></clipPath></defs><g transform="translate(-589.49-2777.98)" font-family="sans-serif" word-spacing="0" line-height="125%" letter-spacing="0" font-size="40"><text x="-1916.35" y="472.97"><tspan x="-1916.35" y="472.97"/></text><text x="-2744.35" y="474.25"><tspan x="-2744.35" y="474.25"/></text><text x="-497.28" y="723.93"><tspan x="-497.28" y="723.93"/></text><flowRoot transform="translate(-1-1)"><flowRegion><path d="m-938.78 806.96h263.83v147.29h-263.83z"/></flowRegion><flowPara/></flowRoot></g><g transform="translate(-589.49 169.66)"><text x="701.57" y="-2326.18" font-family="sans-serif" word-spacing="0" line-height="125%" letter-spacing="0" font-size="40" writing-mode="tb-rl"><tspan x="-2326.18" y="701.57"/></text><path d="m603.9-129.14c-.237-2.267-2.328-4.389-4.696-4.02-2.375.625-2.827 2.737-1.543 4.123 1.284 1.386 2.946 1.561 1.056.269-1.88-1.722 1.514-3.807 2.76-2 1.757 1.615.397 5.565-2.138 5.334-2.538-.162-5.08-.513-5.741-3.736-.475-4.409 4.159-5.995 7.01-8.128 2.322-2.706 4.678-5.98 5.535-9.288-1.881-3.041-5.942-2.502-6.889-6 .286-2.32 3.139-1.888 4.942-2.13 2.048.013 4.099 1.118 5.369 2.662.778.612.928 2.693 1.534 2.71.414-1.331 1.841-2.421 2.369-3.341-1.914-.14-3.319-1.603-4.694-2.817-1.531-1.217-1.821-3.301-1.419-5.107.413-1.717-.056-3.628-2.056-3.863-2.12-.754-2.97-3.103-3.645-5.057-1.389-.796-.856 2.699-2.162 3.16-1.322 1.194-3.115.649-4.616.244-.173.648 1.018 2.227.841 3.407-.177 1.179-.892 1.344-1.983 2.056-2.256.541-.322 1.835-.35 2.719.556 5.419 1.484 9.735.589 14.606-.338 1.887-.48 3.92-1.707 5.485-2.2 4.03-3.921 5.792-1.827 10.548 1.63 2.42 4.15 4.539 7.225 4.468 3.649-.201 7.098-2.231 6.241-6.294" fill="#1b8075"/><g font-family="sans-serif" word-spacing="0" line-height="125%" letter-spacing="0" font-size="40"><text x="621.16" y="-483.1"><tspan x="621.16" y="-483.1"/></text><flowRoot transform="translate(-1-2948.64)"><flowRegion><path d="m246.33 2498.14h112.3v82.41h-112.3z"/></flowRegion><flowPara>Úģ»’”„‚'''''[</flowPara></flowRoot><text x="612.67" y="-2323.95"><tspan x="612.67" y="-2323.95"/></text></g></g></svg>