<svg xmlns="http://www.w3.org/2000/svg" viewBox="0 0 40.609829 30.03955"><defs><clipPath><path fill="#5a33c9" d="m-1285.53 61.76h900v371.5h-900z"/></clipPath><clipPath><path opacity=".727" fill="#7d1f7d" d="m-826.38 651.09h321.31v110.92h-321.31z"/></clipPath></defs><g transform="translate(-690.36-3073.36)" font-family="sans-serif" word-spacing="0" line-height="125%" letter-spacing="0" font-size="40"><text x="-1916.35" y="472.97"><tspan x="-1916.35" y="472.97"/></text><text x="-2744.35" y="474.25"><tspan x="-2744.35" y="474.25"/></text><text x="-497.28" y="723.93"><tspan x="-497.28" y="723.93"/></text><flowRoot transform="translate(-1-1)"><flowRegion><path d="m-938.78 806.96h263.83v147.29h-263.83z"/></flowRegion><flowPara/></flowRoot></g><g transform="translate(-690.36-125.72)"><text x="701.57" y="-2326.18" font-family="sans-serif" word-spacing="0" line-height="125%" letter-spacing="0" font-size="40" writing-mode="tb-rl"><tspan x="-2326.18" y="701.57"/></text><path d="m766.27 43.827c98.71-27.958 135.82 109.49 71.68 182.64-48.13 61.05-93.18 72.74-125.24 135.84-5.759 38.863 9.601 77.32 18.536 114.6 18.777 31.937-9.217 39.535-35.718 41.586-39.813 12.225-56 19.737-98.75 40.545-21.493 16.597-23.13 60.65-54.04 65.33-29.06-3.093-52.16-11.155-78.36-20.21-26.03-7.362-44.88-10.721-102.35 15.255-12.441 6.842-39.524 17.861-61.44 5.177-21.921-12.684-20.462-66.4-30.834-76-1.632-17.331-8.589-28.385-16.929-48.38-114.93-71.838-270.82-57.902-292.17-168.24-8.465-43.75 24.08-94 82.61-105.11-74.23-110.91 14.15-226.7 105.41-219.06-16.927-149.74 125-175.19 204.13-98.48 16.17-69.765 84.76-95.03 133.9-93.12 73.09 14.932 99.45 36.954 110.76 80 80.52-55.631 185.92 40.17 168.82 147.62" transform="matrix(-.04256-.0183-.025.03116 734.23 141.8)" fill="#ffb57b"/><g font-family="sans-serif" fill="#000" word-spacing="0" line-height="125%" letter-spacing="0" font-size="40"><text x="621.16" y="-483.1"><tspan x="621.16" y="-483.1"/></text><flowRoot transform="translate(-1-2948.64)"><flowRegion><path d="m246.33 2498.14h112.3v82.41h-112.3z"/></flowRegion><flowPara>Úģ»’”„‚'''''[</flowPara></flowRoot><text x="612.67" y="-2323.95"><tspan x="612.67" y="-2323.95"/></text></g></g></svg>