<svg xmlns="http://www.w3.org/2000/svg" width="493.91" viewBox="0 0 493.90518 269.35993"><defs><clipPath><path fill="#5a33c9" d="m-1285.53 61.76h900v371.5h-900z"/></clipPath><clipPath><path opacity=".727" fill="#7d1f7d" d="m-826.38 651.09h321.31v110.92h-321.31z"/></clipPath></defs><g transform="translate(-406.09-2856.37)"><g font-family="sans-serif" word-spacing="0" line-height="125%" letter-spacing="0" font-size="40"><text x="-1916.35" y="472.97"><tspan x="-1916.35" y="472.97"/></text><text x="-2744.35" y="474.25"><tspan x="-2744.35" y="474.25"/></text><text x="-497.28" y="723.93"><tspan x="-497.28" y="723.93"/></text><flowRoot transform="translate(-1-1)"><flowRegion><path d="m-938.78 806.96h263.83v147.29h-263.83z"/></flowRegion><flowPara/></flowRoot></g><path d="m722.41 185.44c-42.673 29.28-78.15 71.21-113.67 109.69-42.955 48.962-72.57 13.237-142.03 7.096-69.45-6.141-130.8-45.32-162.16 6.865-43.07 40.19-79.85 97.9-116.35 150.2-20.04 9.413-51.754-12.449-61.62-8.418-.051-.078-45.635-16.768-59.23-16.06-68.19-17.826-124.31-25.08-222.7-36.12-98.39-11.05-190.65-33.647-194.85 26.436-9.716 51.664 7.227 98.13 7.912 149.64 93.91 4.132 138.5 11.935 199.3 36.816l-123.32 25.09c63.35 7.313 198.63 21.76 255.83 35.678l-183.03 39.656c22.251 4.934 215.5 22.247 266.89 38.825l-282.67 32.15 375.99 45.12-476.43-12.684c8.486 46.35 18.15 92.84 28.916 141.02 2.166 25.18 22.15 48.828-7 65.18-54 8.612-86.79 19.406-134.45 25.06 25.893-29.09 27.29-55.6 20.943-117.09 15.507-2.147 19.09-2.368 31.627-6.99-29.01-26.959-43.963-46.23-60.41-78.52-8.832 36.06-13.631 48.954-38.93 88.54 18.526 2.298 22.316.129 37.11-1.143 20.9 78.23-43.19 105.77-64.12 93.84-21.471-10.493-81.75-146.14-80.85-146.23-10.835-21.483-16.854-28.861-12.975-39.41l31.905-33.11-10.01-19.988-45.23 19.05c8.448-50.37-26.19-76.43-59.998-60.11-33.803 16.318-25.903 69.958 12.424 82.5l-40.629 20.705 10.199 19.648 45.824-6.369c9.214 6.268 12.472 21.379 15.695 30.3 20.584 53.748 44.53 99.68 62.28 155.99 8.445 52.22-79.68 45.22-113.61-2.633 11.207-10.591 15.502-14.969 23.15-28.14-45.43-5.191-60.807-13.28-90.68-27.92 8.832 38.09 15.834 51.847 13.551 93.57 13.03-2.976 19.804-8.271 26.818-15.469 20.229 11.768 24.08 34.08 73.875 50.686-589.96 184.05-1045.61 617.52-1334.29 1175.77l3499-248.2-94.78-1336.16c-110.25 5.056-164.78 23.605-256.4 44.28 22.22-64.932-11.638-89.5-45.715-115.2-28.412-29.27-73.856-38.746-49.05-94.53 16.712-39.604 45.619-74.862 61.54-110.58-22.865-29.361-53.55-57.55-84.81-80.27-42.711-35.842-96.07-72.01-149.78-100.96-61.841-24.11-121.93-64.22-188.98-67.11m-1373.74 579.29c6.699.263 13.07 3.463 16.11 10.381 10.286 30.958-19.75 36.26-33.24 22.25-13.946-19.565 2.391-33.21 17.13-32.631" transform="matrix(.14045.00996-.00996.14045 705.44 2823.13)" fill="#1b8075"/><g transform="translate(0 2947.64)" font-family="sans-serif" word-spacing="0" line-height="125%" letter-spacing="0" font-size="40"><text x="701.57" y="-2326.18" writing-mode="tb-rl"><tspan x="-2326.18" y="701.57"/></text><text x="621.16" y="-483.1"><tspan x="621.16" y="-483.1"/></text><flowRoot transform="translate(-1-2948.64)"><flowRegion><path d="m246.33 2498.14h112.3v82.41h-112.3z"/></flowRegion><flowPara>Úģ»’”„‚'''''[</flowPara></flowRoot><text x="612.67" y="-2323.95"><tspan x="612.67" y="-2323.95"/></text></g></g></svg>