<svg xmlns="http://www.w3.org/2000/svg" height="3055.36" viewBox="0 0 14627.02 3055.3574" enable-background="new" xmlns:xlink="http://www.w3.org/1999/xlink"><defs><path id="0" d="m3406.48-921.87c-2.726 3.585-20.851 70.77-20.519 196.68-2.612 67.2 19.596 238.16 27.572 287.2-17.831 46.45-113.61 116.32-134.74 103.7-7.759-4.633-23.654-9.243 11.88-35.624 29.775-23.36 61.846-41.894 91.29-63.64 23.758-18.891 18.868-34.524 2.196-121.34.149-70.863-6.993-126.79-17.496-182.96zm38.935 108.79c-24.293 36.57-.986 144.31-1.744 197.76-.941 62.56 34.29 160.83 16.418 203.15-27.07 145.78-102.64 135.59-103.33 112.4 4.894-6.35 27.304-44.16 39.33-58.906 15.579-28.511 35.441-46.48 59.37-72.59-17.17-109.42-24.581-216.54-35.36-326.8 8.514-4.767 16.812-50.24 25.326-55m89.43 17.957c-4.58 1.409-3.44 43.42-6.342 56.11 2.864 108.56-6.936 231.41 29.665 332.93-3.578 40.1 22.02 159.73-32.1 146.08-18.398-72.829 23.19-147.67 1.508-221.21-13.827-96.13-3.961-194.46-9.211-290.77zm74.72 78.65c-3.624 9.734-6.807 17.381-8.594 27.954-1.589 74.913 5.495 150.41 10.44 223.3-5.536 29.673 15.341 32.353 41.876 62.19 20.861 17.1 50.31 35.818 49.35 61.962-9.632 18.02-12.346 32.74-47.813-2.437-11.449-33.01-39.5-62.769-51.753-91.05-2.348-105.71-23.443-203.55-17.603-294.41z"/><path id="1" d="m3551.84-2337.61c10.639 11.797-12.205 43.22-49.714 90.61-48.875 48.23-85.16 48.44-115.86 75.41-15.477 15.421-48.834 20.681-75.8 39.32-31.19 4.13-55.16 16.624-72.02 8-23.928-19.817-50.67-28.462-78.43-43.28-32.671-18.472-64.45-39.27-91.51-65.6-17.17-14.34-47.37-31.02-61.16-51.37-11.805-5.821-24.01-38.756-44.02-45.13-20.363-18.334-18.568-57.52-38.955-75.1-3.309-28.21-6.771-55.41-6.849-81.26 15.204-25.58-24.389-49.2 24.401-97.52 94.62-30.934 162.2 15.194 226 2.768 57.32-18.757 116.79-.877 168.13-33.21 21.11-7.565 74.38-45.13 129.73-64.851 55.35-19.717 115.77-31.864 140.3 13.339 22.22 15.962 6.01 88.45 6.357 129.98-12.599 96.15-31.803 145.73-60.61 197.89"/><path id="2" d="m2892.88-2154.02c17.14-68.796 30.666-99.81 76.51-157.02l-25.802-23.714 14.304-18.946 69.41 61.8-13.935 17.29-30.25-24.549c-36 40.32-54.13 72.17-68.2 152.18" fill="#ff9600"/><path id="3" d="m3385.72-1545.67c-45.891 112.98-157.67 160.4-225.94 155.12-71.48-5.525-98.78-23.376-174.36-146.29-135.93-62.45-177.67-21.2-200.5-49.06-22.17-96.79 163.11-76.16 221.16 57.35 89.36 177.95 235.49 144.17 337.35 34.2 45.688-64.46 58.921-163.03 70.41-243.55 7.293-84.4-12.824-162.5-42.68-236.38-57.785 185.41-163.18 286.17-283.83 403.18-40.13 1.326-111.68-203.91-125.51-241.13-43.04-115.18-61.14-183.43-77.81-229.28-13-33.972-16.848-91.94-41.27-67.67-57.14 41.894-164.05-48.597-63.67-8.451 86.72 11.13 38.536-9.155 3.709-38.05-22.22-17.242-39.906-54.742-36.856-83.79 1.903-18.13 27.582-42.635 33.892-37.528 6.309 5.106-6.712 39.938-3.108 63.37 5.161 33.553 21.894 66.45 59.05 75.53-29.31-30.677-42.847-78.65-18.433-116.01 39.2-22.888-16.01-.133 18.912 99.58 10.675 12.444 23.548 9.856 20.17-23.18-10.342-39.15 84.89-74.12 48.616-25.904-61.55 15.711-34.25 97.96 13.01 56.945 2.772-49.542 14.741-76.7 17.323-10.932.711 49.27-19.788 35.861-57.61 43.05 18.387 56.58 10.287 53.905 60.17 194.76 49.887 140.86 64.61 187.48 84.77 223.51 22.721 34.12 52.19 120.18 93.08 79.39 56.2-59.6 113.17-118.98 159.76-186.03 27.879-41.26 58.6-88.77 65.69-135.29 10.987-43.709 10.27-73.55-9.23-143.91-19.5-70.36-61.57-58.13-89.12-72.22-23.928-19.817-50.867-28.1-78.43-43.28-32.873-18.11-64.45-39.27-91.51-65.6-17.17-14.34-47.37-31.02-61.16-51.37-11.805-5.821-24.01-38.756-44.02-45.13.327-48.52-39.524-64.51-40.24-94.03 15.204-25.58-34.406-81.47-50.98-216.72-16.573-135.24-24.748-162.65-17.285-237.49 7.463-74.833 12.03-90.96 37.11-146.72 25.08-55.767 35.28-74.06 57.06-96.37-7.48 2.526 49.43-58.71 129.99-108.54 80.56-49.828 110.18-56.923 235.97-54.24 124.12 14.346 155.6 39.518 184.07 54.06 41.27 30.441 74.13 62.44 109.4 91.67 13.659 25.627 24.409 45.869 37.728 75.48 19.864 20.914 32.24 55.745 45.538 83.39 29.566 58.27 26.464 144.43 13.796 249.23-12.669 104.8-47.32 161.73-86.46 209.99-23.931 70.35-57.47 128.6-93.9 194.56 10.639 11.797 4.49 49.9-13.779 84.61 11.09 47.532 33.62 82.01 68.978 136.27 46.09 79.16 125.76 137.44 212 191.79 86.24 54.35 113.53 80.1 138.22 73.72 10.976-154.13-10.455-314.12-53.642-458.39-25.55-91.42-54.809-170.8-88.84-253.14 12.927-42.488-52.674 5.545-58.43-38.946-4.239-21.443-10.153-36.21-3.186-38.753 10.74-3.916 2.882 71.41 44.923 39.983 27.13-23.14 32.521-69.918 11.455-97.83-50.697-16.318-36.3 52.05-55.22 51.09-6.93-.353-4.86-4.433.111-31.987 7.942-45.621 72.78-50.643 82.35-3.593 7.652 91.16 24.03-21.831 8.752-88.72 55.3 2.153-17.634 175.28 36.625 120.2 44.994-38.72 19.542-128.2 49.48-76.38 9.868 42.35-48.552 84.937-64.32 117.47 48.867 4.819 103.13-91.19 75.63-9.96-18.764 37.682-80.963 20.06-106.59 40.648 6.617 32.33 22.271 83.9 29.922 103.48 36.38 94.11 58.944 194.44 85.56 293.03 13.06 117.07 38.852 238.19 20.864 354.77-30.776-3-68.05-22.582-194.5-104.79-126.45-82.21-150.52-126.4-184.85-162.07 56.45 138.3 47.88 265.41 66.44 372.52 24.16 113.58 37.36 157.12 64.42 302.22 27.06 145.1-65.826 217.42-157.03 282.19-91.21 64.776-166.78 83.27-269.96 63.67-79.37-11.227-96.49-10.391-121.17-4.469-93.83 15.02-168.94 44.85-153.29 1.181 41.877-24.29 111.42-27.19 169.68-30.372 123.15 8.889 182.93 55.42 270.05 12.201 205.61-105.39 303.1-193.77 210.15-482-57.31-24.835-144.05-52.99-190.11-25.67-65.4 13.506-45.514 24.79-74.53 75.75z"/><path id="4" d="m19774.39-1071.66c-.04-19.44-27.517-9.299-48.711-52.41.306-38.607 8.556-99.18 15.743-144.05 19.01-118.64 21.09-196.56 19.04-195.44-2.644-26.27 5.108-28.21 11.668-231.79 3.56-39.583 148.28-61.05 217.3-5.473 6.158 23.858-5.069 286.64-5.913 407.07-5.48 103.03-13.194 197.04-16.569 283.32 11.11 43.744-2.571 93.58-9.998 101.01-8.341 4.063-73.39-36.754-93.69-53.01-12.353-10.06-18.61-15.584-37.28-39.444-26.711-37.515-47.635-53.46-51.586-69.795" fill="#fff"/><path id="5" d="m20083.3-2659.9c0 5.773 34.2 10.95 33.371-.31-.831-11.259-33.378-5.463-33.371.31" fill="#fff"/><path id="6" d="m19269.9-1585.89l2.791 37.68c0 0 6.978 6.978 29.31 0l2.799-38.16z" fill="#fff"/><path id="7" d="m19804.39-960.45c-24.67 19.402-60.06 52.19-70.18 32.571-3.229-17.271-6.813-32.801-10.608-51.3-2.128-56.47-.157-126.09 2.794-146.14 19.255-6.304 234.94 74.836 77.995 164.86" fill="#eaeaea"/><path id="8" d="m19299.35-1582.98c35.935-16.21 16.802-80.49 26.354-116.38 37.623-73.932-14.16-82.26-77.68-69-8.324 43.757 12.789 107.94 10.346 159.61-6.563 30.457 18.301 27.976 40.98 25.769"/><path id="9" d="m20025.65-2661.67l60.16-.477v4.297l-67.19.477z" fill="#00b8ff"/><path id="A" d="m19225.05-1787.01c7.296 69.12 9.56 127.3 23.887 207.35 27.692 5.402 51.43 5.202 81.08-.685 4.285-92.05 13.258-137.92 19.887-208.87-43.18-3.951-82.45-11.03-124.85 2.21" fill="#d8d8d8"/><path id="B" d="m19271.33-1204.66l-29-51.31 96.69-46 18.06 55.22z" fill="#fff"/><path id="C" d="m19428.87-1269.41c-80.15 33.08-87.44 44.37-145.33 74.46-5.17-6.01-17.825-10.333-10.128-16.743 21.792-18.15 87.41-39.27 117.07-56.1 41.998-16.506 87.19-37.532 128.1-43.16 12.476 9.562-18.433 16.695-89.72 41.54" fill="#ff9600"/></defs><g transform="translate(-2737.87 3314.29)"><g><use xlink:href="#0"/><g transform="matrix(1.113 0 0 1.113-18597.47 294.87)"><path d="m19804.39-960.45c-24.67 19.402-60.06 52.19-70.18 32.571-3.229-17.271-6.813-32.801-10.608-51.3-2.128-56.47-.157-126.09 2.794-146.14 19.255-6.304 234.94 74.836 77.995 164.86" fill="#eaeaea"/><use xlink:href="#4"/></g><g transform="matrix(1.28471.21627-.21627 1.28471-22635.21-3585.47)"><path d="m20025.65-2661.67l60.16-.477v4.297l-67.19.477z" fill="#00b8ff"/><use xlink:href="#5"/></g><path d="m3385.72-1545.67c-45.891 112.98-157.67 160.4-225.94 155.12-71.48-5.525-98.78-23.376-174.36-146.29-135.93-62.45-177.67-21.2-200.5-49.06-22.17-96.79 163.11-76.16 221.16 57.35 89.36 177.95 235.49 144.17 337.35 34.2 45.688-64.46 58.921-163.03 70.41-243.55 7.293-84.4-12.824-162.5-42.68-236.38-57.785 185.41-163.18 286.17-283.83 403.18-40.13 1.326-111.68-203.91-125.51-241.13-43.04-115.18-61.14-183.43-77.81-229.28-13-33.972-16.848-91.94-41.27-67.67-57.14 41.894-164.05-48.597-63.67-8.451 86.72 11.13 38.536-9.155 3.709-38.05-22.22-17.242-39.906-54.742-36.856-83.79 1.903-18.13 27.582-42.635 33.892-37.528 6.309 5.106-6.712 39.938-3.108 63.37 5.161 33.553 21.894 66.45 59.05 75.53-29.31-30.677-42.847-78.65-18.433-116.01 39.2-22.888-16.01-.133 18.912 99.58 10.675 12.444 23.548 9.856 20.17-23.18-10.342-39.15 84.89-74.12 48.616-25.904-61.55 15.711-34.25 97.96 13.01 56.945 2.772-49.542 14.741-76.7 17.323-10.932.711 49.27-19.788 35.861-57.61 43.05 18.387 56.58 10.287 53.905 60.17 194.76 49.887 140.86 64.61 187.48 84.77 223.51 22.721 34.12 52.19 120.18 93.08 79.39 56.2-59.6 113.17-118.98 159.76-186.03 27.879-41.26 58.6-88.77 65.69-135.29 10.987-43.709 10.27-73.55-9.23-143.91-19.5-70.36-61.57-58.13-89.12-72.22-23.928-19.817-50.867-28.1-78.43-43.28-32.873-18.11-64.45-39.27-91.51-65.6-17.17-14.34-47.37-31.02-61.16-51.37-11.805-5.821-24.01-38.756-44.02-45.13.327-48.52-39.524-64.51-40.24-94.03 15.204-25.58-34.406-81.47-50.98-216.72-16.573-135.24-24.748-162.65-17.285-237.49 7.463-74.833 12.03-90.96 37.11-146.72 25.08-55.767 35.28-74.06 57.06-96.37-7.48 2.526 49.43-58.71 129.99-108.54 80.56-49.828 110.18-56.923 235.97-54.24 124.12 14.346 155.6 39.518 184.07 54.06 41.27 30.441 74.13 62.44 109.4 91.67 13.659 25.627 24.409 45.869 37.728 75.48 19.864 20.914 32.24 55.745 45.538 83.39 29.566 58.27 26.464 144.43 13.796 249.23-12.669 104.8-47.32 161.73-86.46 209.99-23.931 70.35-57.47 128.6-93.9 194.56 10.639 11.797 4.49 49.9-13.779 84.61 11.09 47.532 33.62 82.01 68.978 136.27 46.09 79.16 125.76 137.44 212 191.79 86.24 54.35 113.53 80.1 138.22 73.72 10.976-154.13-10.455-314.12-53.642-458.39-25.55-91.42-54.809-170.8-88.84-253.14 12.927-42.488-52.674 5.545-58.43-38.946-4.239-21.443-10.153-36.21-3.186-38.753 10.74-3.916 2.882 71.41 44.923 39.983 27.13-23.14 32.521-69.918 11.455-97.83-50.697-16.318-36.3 52.05-55.22 51.09-6.93-.353-4.86-4.433.111-31.987 7.942-45.621 72.78-50.643 82.35-3.593 7.652 91.16 24.03-21.831 8.752-88.72 55.3 2.153-17.634 175.28 36.625 120.2 44.994-38.72 19.542-128.2 49.48-76.38 9.868 42.35-48.552 84.937-64.32 117.47 48.867 4.819 103.13-91.19 75.63-9.96-18.764 37.682-80.963 20.06-106.59 40.648 6.617 32.33 22.271 83.9 29.922 103.48 36.38 94.11 58.944 194.44 85.56 293.03 13.06 117.07 38.852 238.19 20.864 354.77-30.776-3-68.05-22.582-194.5-104.79-126.45-82.21-150.52-126.4-184.85-162.07 56.45 138.3 47.88 265.41 66.44 372.52 24.16 113.58 37.36 157.12 64.42 302.22 27.06 145.1 26.601 232.12-64.61 296.89-91.21 64.776-135.28 70.67-238.47 51.07-79.37-11.227-96.49-10.391-121.17-4.469-93.83 15.02-168.94 44.85-153.29 1.181 41.877-24.29 111.42-27.19 169.68-30.372 123.15 8.889 182.93 55.42 270.05 12.201 104.84-53.888 131.38-97.51 136.56-154.65 16.497-78.45-16.728-200.41-50.34-329.44-57.31-24.835-144.05-52.99-190.11-25.67-65.4 13.506-45.514 24.79-74.53 75.75z"/><use fill="#f00" xlink:href="#1"/><g transform="matrix(1.113 0 0 1.113-18597.47 294.87)"><path d="m19299.35-1582.98c35.935-16.21 16.802-80.49 26.354-116.38 37.623-73.932-14.16-82.26-77.68-69-8.324 43.757 12.789 107.94 10.346 159.61-6.563 30.457 18.301 27.976 40.98 25.769"/><use xlink:href="#6"/><path d="m19225.05-1787.01c7.296 69.12 9.56 127.3 23.887 207.35 27.692 5.402 51.43 5.202 81.08-.685 4.285-92.05 13.258-137.92 19.887-208.87-43.18-3.951-82.45-11.03-124.85 2.21" fill="#d8d8d8"/></g><g transform="matrix(1.113 0 0 1.113-18582.72 314.55)"><path d="m19382.68-1202.77l-29-51.31 96.69-46 18.06 55.22z" fill="#fff"/><path d="m19540.22-1267.52c-80.15 33.08-98.22 44.37-156.11 74.46-5.17-6.01-7.04-10.333.654-16.743 21.792-18.15 87.41-39.27 117.07-56.1 41.998-16.506 87.19-37.532 128.1-43.16 12.476 9.562-18.433 16.695-89.72 41.54" fill="#ff9600"/></g><path d="m2892.88-2154.02c17.14-68.796 30.666-99.81 76.51-157.02l-25.802-23.714 14.304-18.946 69.41 61.8-13.935 17.29-30.25-24.549c-36 40.32-54.13 72.17-68.2 152.18" fill="#ff9600"/></g><g transform="translate(1219.9)"><use xlink:href="#0"/><g transform="matrix(1.113 0 0 1.113-18597.47 294.87)"><use xlink:href="#7"/><use xlink:href="#4"/></g><g transform="matrix(1.28471.21627-.21627 1.28471-22635.21-3585.47)"><path d="m20025.65-2661.67l60.16-.477v4.297l-67.19.477z" fill="#00b8ff"/><use xlink:href="#5"/></g><path d="m3385.72-1545.67c-45.891 112.98-157.67 160.4-225.94 155.12-71.48-5.525-98.78-23.376-174.36-146.29-135.93-62.45-177.67-21.2-200.5-49.06-22.17-96.79 163.11-76.16 221.16 57.35 89.36 177.95 235.49 144.17 337.35 34.2 45.688-64.46 58.921-163.03 70.41-243.55 7.293-84.4-12.824-162.5-42.68-236.38-57.785 185.41-163.18 286.17-283.83 403.18-40.13 1.326-111.68-203.91-125.51-241.13-43.04-115.18-61.14-183.43-77.81-229.28-13-33.972-16.848-91.94-41.27-67.67-57.14 41.894-164.05-48.597-63.67-8.451 86.72 11.13 38.536-9.155 3.709-38.05-22.22-17.242-39.906-54.742-36.856-83.79 1.903-18.13 27.582-42.635 33.892-37.528 6.309 5.106-6.712 39.938-3.108 63.37 5.161 33.553 21.894 66.45 59.05 75.53-29.31-30.677-42.847-78.65-18.433-116.01 39.2-22.888-16.01-.133 18.912 99.58 10.675 12.444 23.548 9.856 20.17-23.18-10.342-39.15 84.89-74.12 48.616-25.904-61.55 15.711-34.25 97.96 13.01 56.945 2.772-49.542 14.741-76.7 17.323-10.932.711 49.27-19.788 35.861-57.61 43.05 18.387 56.58 10.287 53.905 60.17 194.76 49.887 140.86 64.61 187.48 84.77 223.51 22.721 34.12 52.19 120.18 93.08 79.39 56.2-59.6 113.17-118.98 159.76-186.03 27.879-41.26 58.6-88.77 65.69-135.29 10.987-43.709 10.27-73.55-9.23-143.91-19.5-70.36-61.57-58.13-89.12-72.22-23.928-19.817-50.867-28.1-78.43-43.28-32.873-18.11-64.45-39.27-91.51-65.6-17.17-14.34-47.37-31.02-61.16-51.37-11.805-5.821-24.01-38.756-44.02-45.13.327-48.52-39.524-64.51-40.24-94.03 15.204-25.58-34.406-81.47-50.98-216.72-16.573-135.24-24.748-162.65-17.285-237.49 7.463-74.833 12.03-90.96 37.11-146.72 25.08-55.767 35.28-74.06 57.06-96.37-7.48 2.526 49.43-58.71 129.99-108.54 80.56-49.828 110.18-56.923 235.97-54.24 124.12 14.346 155.6 39.518 184.07 54.06 41.27 30.441 74.13 62.44 109.4 91.67 13.659 25.627 24.409 45.869 37.728 75.48 19.864 20.914 32.24 55.745 45.538 83.39 29.566 58.27 26.464 144.43 13.796 249.23-12.669 104.8-47.32 161.73-86.46 209.99-23.931 70.35-57.47 128.6-93.9 194.56 10.639 11.797 4.49 49.9-13.779 84.61 11.09 47.532 33.62 82.01 68.978 136.27 46.09 79.16 125.76 137.44 212 191.79 86.24 54.35 113.53 80.1 138.22 73.72 10.976-154.13-10.455-314.12-53.642-458.39-25.55-91.42-54.809-170.8-88.84-253.14 12.927-42.488-52.674 5.545-58.43-38.946-4.239-21.443-10.153-36.21-3.186-38.753 10.74-3.916 2.882 71.41 44.923 39.983 27.13-23.14 32.521-69.918 11.455-97.83-50.697-16.318-36.3 52.05-55.22 51.09-6.93-.353-4.86-4.433.111-31.987 7.942-45.621 72.78-50.643 82.35-3.593 7.652 91.16 24.03-21.831 8.752-88.72 55.3 2.153-17.634 175.28 36.625 120.2 44.994-38.72 19.542-128.2 49.48-76.38 9.868 42.35-48.552 84.937-64.32 117.47 48.867 4.819 103.13-91.19 75.63-9.96-18.764 37.682-80.963 20.06-106.59 40.648 6.617 32.33 22.271 83.9 29.922 103.48 36.38 94.11 58.944 194.44 85.56 293.03 13.06 117.07 38.852 238.19 20.864 354.77-30.776-3-68.05-22.582-194.5-104.79-126.45-82.21-150.52-126.4-184.85-162.07 56.45 138.3 47.88 265.41 66.44 372.52 24.16 113.58 37.36 157.12 64.42 302.22 27.06 145.1 18.601 232.12-72.61 296.89-91.21 64.776-135.28 70.67-238.47 51.07-79.37-11.227-96.49-10.391-121.17-4.469-93.83 15.02-168.94 44.85-153.29 1.181 41.877-24.29 111.42-27.19 169.68-30.372 123.15 8.889 182.93 55.42 270.05 12.201 104.84-53.888 139.38-97.51 144.56-154.65 16.497-78.45-16.728-200.41-50.34-329.44-57.31-24.835-144.05-52.99-190.11-25.67-65.4 13.506-45.514 24.79-74.53 75.75z"/><use fill="#fff" xlink:href="#1"/><g transform="matrix(1.113 0 0 1.113-18597.47 294.87)"><use xlink:href="#8"/><use xlink:href="#6"/><path d="m19225.05-1787.01c7.296 69.12 9.56 127.3 23.887 207.35 27.692 5.402 51.43 5.202 81.08-.685 4.285-92.05 13.258-137.92 19.887-208.87-43.18-3.951-82.45-11.03-124.85 2.21" fill="#d8d8d8"/></g><g transform="matrix(1.113 0 0 1.113-18582.72 314.55)"><path d="m19375.49-1202.77l-29-51.31 96.69-46 18.06 55.22z" fill="#fff"/><path d="m19533.03-1267.52c-80.15 33.08-98.22 44.37-156.11 74.46-5.17-6.01-7.04-10.333.654-16.743 21.792-18.15 87.41-39.27 117.07-56.1 41.998-16.506 87.19-37.532 128.1-43.16 12.476 9.562-18.433 16.695-89.72 41.54" fill="#ff9600"/></g><use xlink:href="#2"/></g><g transform="translate(2438.74)"><use xlink:href="#0"/><g transform="matrix(1.113 0 0 1.113-18597.47 294.87)"><use xlink:href="#7"/><use xlink:href="#4"/></g><g transform="matrix(1.28471.21627-.21627 1.28471-22635.21-3585.47)"><use xlink:href="#9"/><use xlink:href="#5"/></g><path d="m3385.72-1545.67c-45.891 112.98-157.67 160.4-225.94 155.12-71.48-5.525-98.78-23.376-174.36-146.29-135.93-62.45-177.67-21.2-200.5-49.06-22.17-96.79 163.11-76.16 221.16 57.35 89.36 177.95 235.49 144.17 337.35 34.2 45.688-64.46 58.921-163.03 70.41-243.55 7.293-84.4-12.824-162.5-42.68-236.38-57.785 185.41-163.18 286.17-283.83 403.18-40.13 1.326-111.68-203.91-125.51-241.13-43.04-115.18-61.14-183.43-77.81-229.28-13-33.972-16.848-91.94-41.27-67.67-57.14 41.894-164.05-48.597-63.67-8.451 86.72 11.13 38.536-9.155 3.709-38.05-22.22-17.242-39.906-54.742-36.856-83.79 1.903-18.13 27.582-42.635 33.892-37.528 6.309 5.106-6.712 39.938-3.108 63.37 5.161 33.553 21.894 66.45 59.05 75.53-29.31-30.677-42.847-78.65-18.433-116.01 39.2-22.888-16.01-.133 18.912 99.58 10.675 12.444 23.548 9.856 20.17-23.18-10.342-39.15 84.89-74.12 48.616-25.904-61.55 15.711-34.25 97.96 13.01 56.945 2.772-49.542 14.741-76.7 17.323-10.932.711 49.27-19.788 35.861-57.61 43.05 18.387 56.58 10.287 53.905 60.17 194.76 49.887 140.86 64.61 187.48 84.77 223.51 22.721 34.12 52.19 120.18 93.08 79.39 56.2-59.6 113.17-118.98 159.76-186.03 27.879-41.26 58.6-88.77 65.69-135.29 10.987-43.709 10.27-73.55-9.23-143.91-19.5-70.36-61.57-58.13-89.12-72.22-23.928-19.817-50.867-28.1-78.43-43.28-32.873-18.11-64.45-39.27-91.51-65.6-17.17-14.34-47.37-31.02-61.16-51.37-11.805-5.821-24.01-38.756-44.02-45.13.327-48.52-39.524-64.51-40.24-94.03 15.204-25.58-34.406-81.47-50.98-216.72-16.573-135.24-24.748-162.65-17.285-237.49 7.463-74.833 12.03-90.96 37.11-146.72 25.08-55.767 35.28-74.06 57.06-96.37-7.48 2.526 49.43-58.71 129.99-108.54 80.56-49.828 110.18-56.923 235.97-54.24 124.12 14.346 155.6 39.518 184.07 54.06 41.27 30.441 74.13 62.44 109.4 91.67 13.659 25.627 24.409 45.869 37.728 75.48 19.864 20.914 32.24 55.745 45.538 83.39 29.566 58.27 26.464 144.43 13.796 249.23-12.669 104.8-47.32 161.73-86.46 209.99-23.931 70.35-57.47 128.6-93.9 194.56 10.639 11.797 4.49 49.9-13.779 84.61 11.09 47.532 33.62 82.01 68.978 136.27 46.09 79.16 125.76 137.44 212 191.79 86.24 54.35 113.53 80.1 138.22 73.72 10.976-154.13-10.455-314.12-53.642-458.39-25.55-91.42-54.809-170.8-88.84-253.14 12.927-42.488-52.674 5.545-58.43-38.946-4.239-21.443-10.153-36.21-3.186-38.753 10.74-3.916 2.882 71.41 44.923 39.983 27.13-23.14 32.521-69.918 11.455-97.83-50.697-16.318-36.3 52.05-55.22 51.09-6.93-.353-4.86-4.433.111-31.987 7.942-45.621 72.78-50.643 82.35-3.593 7.652 91.16 24.03-21.831 8.752-88.72 55.3 2.153-17.634 175.28 36.625 120.2 44.994-38.72 19.542-128.2 49.48-76.38 9.868 42.35-48.552 84.937-64.32 117.47 48.867 4.819 103.13-91.19 75.63-9.96-18.764 37.682-80.963 20.06-106.59 40.648 6.617 32.33 22.271 83.9 29.922 103.48 36.38 94.11 58.944 194.44 85.56 293.03 13.06 117.07 38.852 238.19 20.864 354.77-30.776-3-68.05-22.582-194.5-104.79-126.45-82.21-150.52-126.4-184.85-162.07 56.45 138.3 47.88 265.41 66.44 372.52 24.16 113.58 37.36 157.12 64.42 302.22 27.06 145.1 6.601 232.12-84.61 296.89-91.21 64.776-135.28 70.67-238.47 51.07-79.37-11.227-96.49-10.391-121.17-4.469-93.83 15.02-168.94 44.85-153.29 1.181 41.877-24.29 111.42-27.19 169.68-30.372 123.15 8.889 182.93 55.42 270.05 12.201 104.84-53.888 143.38-97.51 148.56-154.65 16.497-78.45-8.728-200.41-42.34-329.44-57.31-24.835-144.05-52.99-190.11-25.67-65.4 13.506-45.514 24.79-74.53 75.75z"/><use fill="#fff" xlink:href="#1"/><g transform="matrix(1.113 0 0 1.113-18597.47 294.87)"><use xlink:href="#8"/><use xlink:href="#6"/><path d="m19225.05-1787.01c7.296 69.12 9.56 127.3 23.887 207.35 27.692 5.402 51.43 5.202 81.08-.685 4.285-92.05 13.258-137.92 19.887-208.87-43.18-3.951-82.45-11.03-124.85 2.21" fill="#d8d8d8"/></g><g transform="matrix(1.113 0 0 1.113-18582.72 314.55)"><path d="m19364.71-1202.77l-29-51.31 96.69-46 18.06 55.22z" fill="#fff"/><path d="m19522.24-1267.52c-80.15 33.08-87.44 44.37-145.33 74.46-5.17-6.01-17.825-10.333-10.128-16.743 21.792-18.15 87.41-39.27 117.07-56.1 41.998-16.506 87.19-37.532 128.1-43.16 12.476 9.562-18.433 16.695-89.72 41.54" fill="#ff9600"/></g><use xlink:href="#2"/></g><g transform="translate(3657.58)"><use xlink:href="#0"/><g transform="matrix(1.113 0 0 1.113-18597.47 294.87)"><use xlink:href="#7"/><use xlink:href="#4"/></g><g transform="matrix(1.28471.21627-.21627 1.28471-22635.21-3585.47)"><use xlink:href="#9"/><use xlink:href="#5"/></g><path d="m3385.72-1545.67c-45.891 112.98-157.67 160.4-225.94 155.12-71.48-5.525-98.78-23.376-174.36-146.29-135.93-62.45-177.67-21.2-200.5-49.06-22.17-96.79 163.11-76.16 221.16 57.35 89.36 177.95 235.49 144.17 337.35 34.2 45.688-64.46 58.921-163.03 70.41-243.55 7.293-84.4-12.824-162.5-42.68-236.38-57.785 185.41-163.18 286.17-283.83 403.18-40.13 1.326-111.68-203.91-125.51-241.13-43.04-115.18-61.14-183.43-77.81-229.28-13-33.972-16.848-91.94-41.27-67.67-57.14 41.894-164.05-48.597-63.67-8.451 86.72 11.13 38.536-9.155 3.709-38.05-22.22-17.242-39.906-54.742-36.856-83.79 1.903-18.13 27.582-42.635 33.892-37.528 6.309 5.106-6.712 39.938-3.108 63.37 5.161 33.553 21.894 66.45 59.05 75.53-29.31-30.677-42.847-78.65-18.433-116.01 39.2-22.888-16.01-.133 18.912 99.58 10.675 12.444 23.548 9.856 20.17-23.18-10.342-39.15 84.89-74.12 48.616-25.904-61.55 15.711-34.25 97.96 13.01 56.945 2.772-49.542 14.741-76.7 17.323-10.932.711 49.27-19.788 35.861-57.61 43.05 18.387 56.58 10.287 53.905 60.17 194.76 49.887 140.86 64.61 187.48 84.77 223.51 22.721 34.12 52.19 120.18 93.08 79.39 56.2-59.6 113.17-118.98 159.76-186.03 27.879-41.26 58.6-88.77 65.69-135.29 10.987-43.709 10.27-73.55-9.23-143.91-19.5-70.36-61.57-58.13-89.12-72.22-23.928-19.817-50.867-28.1-78.43-43.28-32.873-18.11-64.45-39.27-91.51-65.6-17.17-14.34-47.37-31.02-61.16-51.37-11.805-5.821-24.01-38.756-44.02-45.13.327-48.52-39.524-64.51-40.24-94.03 15.204-25.58-34.406-81.47-50.98-216.72-16.573-135.24-24.748-162.65-17.285-237.49 7.463-74.833 12.03-90.96 37.11-146.72 25.08-55.767 35.28-74.06 57.06-96.37-7.48 2.526 49.43-58.71 129.99-108.54 80.56-49.828 110.18-56.923 235.97-54.24 124.12 14.346 155.6 39.518 184.07 54.06 41.27 30.441 74.13 62.44 109.4 91.67 13.659 25.627 24.409 45.869 37.728 75.48 19.864 20.914 32.24 55.745 45.538 83.39 29.566 58.27 26.464 144.43 13.796 249.23-12.669 104.8-47.32 161.73-86.46 209.99-23.931 70.35-57.47 128.6-93.9 194.56 10.639 11.797 4.49 49.9-13.779 84.61 11.09 47.532 33.62 82.01 68.978 136.27 46.09 79.16 125.76 137.44 212 191.79 86.24 54.35 113.53 80.1 138.22 73.72 10.976-154.13-10.455-314.12-53.642-458.39-25.55-91.42-54.809-170.8-88.84-253.14 12.927-42.488-52.674 5.545-58.43-38.946-4.239-21.443-10.153-36.21-3.186-38.753 10.74-3.916 2.882 71.41 44.923 39.983 27.13-23.14 32.521-69.918 11.455-97.83-50.697-16.318-36.3 52.05-55.22 51.09-6.93-.353-4.86-4.433.111-31.987 7.942-45.621 72.78-50.643 82.35-3.593 7.652 91.16 24.03-21.831 8.752-88.72 55.3 2.153-17.634 175.28 36.625 120.2 44.994-38.72 19.542-128.2 49.48-76.38 9.868 42.35-48.552 84.937-64.32 117.47 48.867 4.819 103.13-91.19 75.63-9.96-18.764 37.682-80.963 20.06-106.59 40.648 6.617 32.33 22.271 83.9 29.922 103.48 36.38 94.11 58.944 194.44 85.56 293.03 13.06 117.07 38.852 238.19 20.864 354.77-30.776-3-68.05-22.582-194.5-104.79-126.45-82.21-150.52-126.4-184.85-162.07 56.45 138.3 47.88 265.41 66.44 372.52 24.16 113.58 37.36 157.12 64.42 302.22 27.06 145.1-9.399 232.12-100.61 296.89-91.21 64.776-135.28 70.67-238.47 51.07-79.37-11.227-96.49-10.391-121.17-4.469-93.83 15.02-168.94 44.85-153.29 1.181 41.877-24.29 111.42-27.19 169.68-30.372 123.15 8.889 182.93 55.42 270.05 12.201 104.84-53.888 145.38-97.51 150.56-154.65 29.861-90.33 12.697-132.1-28.34-329.44-57.31-24.835-144.05-52.99-190.11-25.67-65.4 13.506-45.514 24.79-74.53 75.75z"/><use fill="#fff" xlink:href="#1"/><g transform="matrix(1.113 0 0 1.113-18597.47 294.87)"><use xlink:href="#8"/><use xlink:href="#6"/><use xlink:href="#A"/></g><g transform="matrix(1.113 0 0 1.113-18582.72 314.55)"><path d="m19350.33-1202.77l-29-51.31 96.69-46 18.06 55.22z" fill="#fff"/><path d="m19507.87-1267.52c-80.15 33.08-87.44 44.37-145.33 74.46-5.17-6.01-17.825-10.333-10.128-16.743 21.792-18.15 87.41-39.27 117.07-56.1 41.998-16.506 87.19-37.532 128.1-43.16 12.476 9.562-18.433 16.695-89.72 41.54" fill="#ff9600"/></g><use xlink:href="#2"/></g><g transform="translate(4876.42)"><use xlink:href="#0"/><g transform="matrix(1.113 0 0 1.113-18597.47 294.87)"><use xlink:href="#7"/><use xlink:href="#4"/></g><g transform="matrix(1.28471.21627-.21627 1.28471-22635.21-3585.47)"><use xlink:href="#9"/><use xlink:href="#5"/></g><path d="m3385.72-1545.67c-45.891 112.98-157.67 160.4-225.94 155.12-71.48-5.525-98.78-23.376-174.36-146.29-135.93-62.45-177.67-21.2-200.5-49.06-22.17-96.79 163.11-76.16 221.16 57.35 89.36 177.95 235.49 144.17 337.35 34.2 45.688-64.46 58.921-163.03 70.41-243.55 7.293-84.4-12.824-162.5-42.68-236.38-57.785 185.41-163.18 286.17-283.83 403.18-40.13 1.326-111.68-203.91-125.51-241.13-43.04-115.18-61.14-183.43-77.81-229.28-13-33.972-16.848-91.94-41.27-67.67-57.14 41.894-164.05-48.597-63.67-8.451 86.72 11.13 38.536-9.155 3.709-38.05-22.22-17.242-39.906-54.742-36.856-83.79 1.903-18.13 27.582-42.635 33.892-37.528 6.309 5.106-6.712 39.938-3.108 63.37 5.161 33.553 21.894 66.45 59.05 75.53-29.31-30.677-42.847-78.65-18.433-116.01 39.2-22.888-16.01-.133 18.912 99.58 10.675 12.444 23.548 9.856 20.17-23.18-10.342-39.15 84.89-74.12 48.616-25.904-61.55 15.711-34.25 97.96 13.01 56.945 2.772-49.542 14.741-76.7 17.323-10.932.711 49.27-19.788 35.861-57.61 43.05 18.387 56.58 10.287 53.905 60.17 194.76 49.887 140.86 64.61 187.48 84.77 223.51 22.721 34.12 52.19 120.18 93.08 79.39 56.2-59.6 113.17-118.98 159.76-186.03 27.879-41.26 58.6-88.77 65.69-135.29 10.987-43.709 10.27-73.55-9.23-143.91-19.5-70.36-61.57-58.13-89.12-72.22-23.928-19.817-50.867-28.1-78.43-43.28-32.873-18.11-64.45-39.27-91.51-65.6-17.17-14.34-47.37-31.02-61.16-51.37-11.805-5.821-24.01-38.756-44.02-45.13.327-48.52-39.524-64.51-40.24-94.03 15.204-25.58-34.406-81.47-50.98-216.72-16.573-135.24-24.748-162.65-17.285-237.49 7.463-74.833 12.03-90.96 37.11-146.72 25.08-55.767 35.28-74.06 57.06-96.37-7.48 2.526 49.43-58.71 129.99-108.54 80.56-49.828 110.18-56.923 235.97-54.24 124.12 14.346 155.6 39.518 184.07 54.06 41.27 30.441 74.13 62.44 109.4 91.67 13.659 25.627 24.409 45.869 37.728 75.48 19.864 20.914 32.24 55.745 45.538 83.39 29.566 58.27 26.464 144.43 13.796 249.23-12.669 104.8-47.32 161.73-86.46 209.99-23.931 70.35-57.47 128.6-93.9 194.56 10.639 11.797 4.49 49.9-13.779 84.61 11.09 47.532 33.62 82.01 68.978 136.27 46.09 79.16 125.76 137.44 212 191.79 86.24 54.35 113.53 80.1 138.22 73.72 10.976-154.13-10.455-314.12-53.642-458.39-25.55-91.42-54.809-170.8-88.84-253.14 12.927-42.488-52.674 5.545-58.43-38.946-4.239-21.443-10.153-36.21-3.186-38.753 10.74-3.916 2.882 71.41 44.923 39.983 27.13-23.14 32.521-69.918 11.455-97.83-50.697-16.318-36.3 52.05-55.22 51.09-6.93-.353-4.86-4.433.111-31.987 7.942-45.621 72.78-50.643 82.35-3.593 7.652 91.16 24.03-21.831 8.752-88.72 55.3 2.153-17.634 175.28 36.625 120.2 44.994-38.72 19.542-128.2 49.48-76.38 9.868 42.35-48.552 84.937-64.32 117.47 48.867 4.819 103.13-91.19 75.63-9.96-18.764 37.682-80.963 20.06-106.59 40.648 6.617 32.33 22.271 83.9 29.922 103.48 36.38 94.11 58.944 194.44 85.56 293.03 13.06 117.07 38.852 238.19 20.864 354.77-30.776-3-68.05-22.582-194.5-104.79-126.45-82.21-150.52-126.4-184.85-162.07 56.45 138.3 47.88 265.41 66.44 372.52 24.16 113.58 37.36 157.12 64.42 302.22 27.06 145.1-65.826 232.12-157.03 296.89-91.21 64.776-135.28 70.67-238.47 51.07-79.37-11.227-96.49-10.391-121.17-4.469-93.83 15.02-168.94 44.85-153.29 1.181 41.877-24.29 111.42-27.19 169.68-30.372 123.15 8.889 182.93 55.42 270.05 12.201 205.61-105.39 242.2-218.97 178.65-484.1-57.31-24.835-144.05-52.99-190.11-25.67-65.4 13.506-45.514 24.79-74.53 75.75z"/><use fill="#fff" xlink:href="#1"/><g transform="matrix(1.113 0 0 1.113-18597.47 294.87)"><use xlink:href="#8"/><use xlink:href="#6"/><use xlink:href="#A"/></g><g transform="matrix(1.113 0 0 1.113-18582.72 314.55)"><path d="m19299.63-1202.77l-29-51.31 96.69-46 18.06 55.22z" fill="#fff"/><path d="m19457.17-1267.52c-80.15 33.08-87.44 44.37-145.33 74.46-5.17-6.01-17.825-10.333-10.128-16.743 21.792-18.15 87.41-39.27 117.07-56.1 41.998-16.506 87.19-37.532 128.1-43.16 12.476 9.562-18.433 16.695-89.72 41.54" fill="#ff9600"/></g><use xlink:href="#2"/></g><g transform="translate(6095.25)"><use xlink:href="#0"/><g transform="matrix(1.113 0 0 1.113-18597.47 294.87)"><use xlink:href="#7"/><use xlink:href="#4"/></g><g transform="matrix(1.28471.21627-.21627 1.28471-22635.21-3585.47)"><use xlink:href="#9"/><use xlink:href="#5"/></g><use xlink:href="#3"/><use fill="#fff" xlink:href="#1"/><g transform="matrix(1.113 0 0 1.113-18597.47 294.87)"><use xlink:href="#8"/><use xlink:href="#6"/><use xlink:href="#A"/></g><g transform="matrix(1.113 0 0 1.113-18582.72 314.55)"><use xlink:href="#B"/><path d="m19428.87-1269.41c-80.15 33.08-87.44 44.37-145.33 74.46-5.17-6.01-17.825-10.333-10.128-16.743 21.792-18.15 87.41-39.27 117.07-56.1 41.998-16.506 87.19-37.532 128.1-43.16 12.476 9.562-18.433 16.695-89.72 41.54" fill="#ff9600"/></g><use xlink:href="#2"/></g><g transform="translate(7314.09)"><use xlink:href="#0"/><g transform="matrix(1.113 0 0 1.113-18597.47 294.87)"><use xlink:href="#7"/><use xlink:href="#4"/></g><g transform="matrix(1.28471.21627-.21627 1.28471-22635.21-3585.47)"><use xlink:href="#9"/><use xlink:href="#5"/></g><use xlink:href="#3"/><use fill="#fff" xlink:href="#1"/><g transform="matrix(1.113 0 0 1.113-18597.47 294.87)"><use xlink:href="#8"/><use xlink:href="#6"/><use xlink:href="#A"/></g><g transform="matrix(1.113 0 0 1.113-18582.72 314.55)"><use xlink:href="#B"/><use xlink:href="#C"/></g><use xlink:href="#2"/></g><g transform="translate(8532.93)"><use xlink:href="#0"/><g transform="matrix(1.113 0 0 1.113-18597.47 294.87)"><use xlink:href="#7"/><use xlink:href="#4"/></g><g transform="matrix(1.28471.21627-.21627 1.28471-22635.21-3585.47)"><use xlink:href="#9"/><use xlink:href="#5"/></g><use xlink:href="#3"/><use fill="#fff" xlink:href="#1"/><g transform="matrix(1.113 0 0 1.113-18597.47 294.87)"><use xlink:href="#8"/><use xlink:href="#6"/><use xlink:href="#A"/></g><g transform="matrix(1.113 0 0 1.113-18582.72 314.55)"><use xlink:href="#B"/><use xlink:href="#C"/></g><use xlink:href="#2"/></g><g transform="translate(9751.77)"><use xlink:href="#0"/><g transform="matrix(1.113 0 0 1.113-18597.47 294.87)"><use xlink:href="#7"/><use xlink:href="#4"/></g><g transform="matrix(1.28471.21627-.21627 1.28471-22635.21-3585.47)"><use xlink:href="#9"/><use xlink:href="#5"/></g><use xlink:href="#3"/><use fill="#fff" xlink:href="#1"/><g transform="matrix(1.113 0 0 1.113-18597.47 294.87)"><use xlink:href="#8"/><use xlink:href="#6"/><use xlink:href="#A"/></g><g transform="matrix(1.113 0 0 1.113-18582.72 314.55)"><use xlink:href="#B"/><use xlink:href="#C"/></g><use xlink:href="#2"/></g><g transform="translate(10970.61)"><use xlink:href="#0"/><g transform="matrix(1.113 0 0 1.113-18597.47 294.87)"><use xlink:href="#7"/><use xlink:href="#4"/></g><g transform="matrix(1.28471.21627-.21627 1.28471-22635.21-3585.47)"><use xlink:href="#9"/><use xlink:href="#5"/></g><use xlink:href="#3"/><use fill="#fff" xlink:href="#1"/><g transform="matrix(1.113 0 0 1.113-18597.47 294.87)"><use xlink:href="#8"/><use xlink:href="#6"/><use xlink:href="#A"/></g><g transform="matrix(1.113 0 0 1.113-18582.72 314.55)"><use xlink:href="#B"/><use xlink:href="#C"/></g><use xlink:href="#2"/></g><g transform="translate(12189.44)"><use xlink:href="#0"/><g transform="matrix(1.113 0 0 1.113-18597.47 294.87)"><use xlink:href="#7"/><use xlink:href="#4"/></g><g transform="matrix(1.28471.21627-.21627 1.28471-22635.21-3585.47)"><use xlink:href="#9"/><use xlink:href="#5"/></g><use xlink:href="#3"/><use fill="#fff" xlink:href="#1"/><g transform="matrix(1.113 0 0 1.113-18597.47 294.87)"><use xlink:href="#8"/><use xlink:href="#6"/><use xlink:href="#A"/></g><g transform="matrix(1.113 0 0 1.113-18582.72 314.55)"><use xlink:href="#B"/><use xlink:href="#C"/></g><use xlink:href="#2"/></g><g transform="translate(13408.28)"><use xlink:href="#0"/><g transform="matrix(1.113 0 0 1.113-18597.47 294.87)"><use xlink:href="#7"/><use xlink:href="#4"/></g><g transform="matrix(1.28471.21627-.21627 1.28471-22635.21-3585.47)"><use xlink:href="#9"/><use xlink:href="#5"/></g><use xlink:href="#3"/><use fill="#fff" xlink:href="#1"/><g transform="matrix(1.113 0 0 1.113-18597.47 294.87)"><use xlink:href="#8"/><use xlink:href="#6"/><use xlink:href="#A"/></g><g transform="matrix(1.113 0 0 1.113-18582.72 314.55)"><use xlink:href="#B"/><use xlink:href="#C"/></g><use xlink:href="#2"/></g></g></svg>