<svg xmlns="http://www.w3.org/2000/svg" height="53.56" viewBox="0 0 50.924814 53.561013"><defs><clipPath><path fill="#5a33c9" d="m-1285.53 61.76h900v371.5h-900z"/></clipPath><clipPath><path opacity=".727" fill="#7d1f7d" d="m-826.38 651.09h321.31v110.92h-321.31z"/></clipPath></defs><g transform="translate(-426.18-778.56)" font-family="sans-serif" word-spacing="0" line-height="125%" letter-spacing="0" font-size="40"><text x="-1916.35" y="472.97"><tspan x="-1916.35" y="472.97"/></text><text x="-2744.35" y="474.25"><tspan x="-2744.35" y="474.25"/></text><text x="-497.28" y="723.93"><tspan x="-497.28" y="723.93"/></text><flowRoot transform="translate(-1-1)"><flowRegion><path d="m-938.78 806.96h263.83v147.29h-263.83z"/></flowRegion><flowPara/></flowRoot></g><g transform="translate(-426.18 2169.08)"><g font-family="sans-serif" word-spacing="0" line-height="125%" letter-spacing="0" font-size="40"><text x="701.57" y="-2326.18" writing-mode="tb-rl"><tspan x="-2326.18" y="701.57"/></text><text x="621.16" y="-483.1"><tspan x="621.16" y="-483.1"/></text><flowRoot transform="translate(-1-2948.64)"><flowRegion><path d="m246.33 2498.14h112.3v82.41h-112.3z"/></flowRegion><flowPara>Úģ»’”„‚'''''[</flowPara></flowRoot><text x="612.67" y="-2323.95"><tspan x="612.67" y="-2323.95"/></text></g><g transform="matrix(.43615 0 0 .43615 252.95-1183.41)"><g transform="matrix(1.26393.10274-.0308 1.23008-123.65 492.03)"><path d="m371.03-2208.77c-1.129-1.767-2.026-4.294-2.679-6.573-.018-3.303-.97-7.495-.078-11.05-.184-3.047.663-6.593 1.184-9.779.899-2.211 1.534-4.37 2.562-6.617.654-1.796 1.509-3.646 2.284-5.313.768-.954 2.159-2.766 3.197-4.516 1.445-2.11 3.612-3.38 13.515-10.254 9.903-6.874 13.09-8.233 16.3-8.374 3.316-.24 6.886.166 9.934.705 3.197.836 6.983 1.394 9.963 3.259 2.458.843 6.01 2.888 8.994 6.163 2.988 3.275 5.227 6.483 7.534 8.857-.109 1.541 1.712 4.049 2.111 6.06.32 1.336 1.162 3.979 1.628 5.726.772 3.216 1.687 5.61 1.63 8.925.635 3.635-.062 7.124-.697 10.664-.383.463-1.028 2.407-1.233 3.825-.868 1.01-.71 1.928-1.265 3.855-1.224 1.932-1.295 4.427-2.228 6.076-2.515 1.687-2.071 4.108-4.172 6.318-1.48 2.271-3.322 4.075-5.433 5.886-3.583 2.269-8.794 6.637-11.941 6.639-1.889.588-4.481.972-6.392 1.24-1.911.267-4.459 1.616-7.556 1.06-16.971-3.086-27.903-9.277-37.16-22.782" fill="#ff6347"/><g fill="#fff"><path d="m434.58-2211.05c-1.466-1.638-3.66-2.285-5.01-3.662-1.865-.753-3.323-2.423-5.064-2.901-2.098-1.659-4.84-2.885-6.906-4.548-2.498-1.569-4.978-3.03-7.412-4.422-1.088-1.406-2.528-1.801-6.917-4.18-4.105-2.265-9.07-3.501-11.37-7.216.961-2.102 2.738-2.896 2.952-3.461 3.417-3.34 6.546-5.289 10.51-7.377 2.105-.8 3.661-2.38 11.784-4.265 8.123-1.885 13.224-2.605 18.339-2.735 4.073-.142 5.745.751 8.258 3.558-.109 1.541 2.512 4.049 2.911 6.06.32 1.336 1.162 3.979 1.628 5.726.772 3.216 1.687 5.61 1.63 8.925.635 3.635-.062 7.124-.697 10.664-.383.463-1.028 2.407-1.233 3.825-.868 1.01-.71 1.928-1.265 3.855-1.224 1.932-2.096 4.427-3.03 6.076 0 0-6.52-.384-9.107-3.92"/><path d="m389.97-2238.82c-1.403-2.053-4.938-2.826-9.411-6.513-4.473-3.688-5.04-3.941-4.182-6 1.445-2.11 4.733-4.661 5.89-6.874 2.229-2.532 4.472-5.415 7.764-6.699 3.292-1.284 6.578-2.54 8.288-3.371 1.575-.888 4.95-2.133 6.831-2.696-1.062 1.29-4.624 4.415-5.4 8.2-1.307 4.497-3.18 7.248-4.1 11.66-1.739 3.947-3.281 10.07-3.789 13.169-.549.261-1.082-.417-1.891-.872"/><path d="m405.03-2185.75c-6.261-.313-9.543-1.614-10.61-1.433-1.877-1.029-4.541-.189-6.4-1.569-2.512-.227-1.806-.684-3.242-1.69-1.266-.826-1.733-1.863-3.097-2.281-1.651-1.773-3.63-3.124-5.124-4.903-.843-1.256-1.851-2.367-2.35-3.591-1.053-2.548-4.04-6.723-4.446-9.52.082-2.423.823-4.281 1.77-6.647 1.14-3 2.834-5.162 3.955-7.196 1.681-2.668 4.239-4.327 6.67-6.304 1.08-.235 2.821-2.797 4.239-3.34.422-.909 2.57-3.856 5.488-3.626.73 4.083.147 7.481-.114 11.787-.261 4.307.953 9.607 1.253 11.911.299 2.304 1.751 6.114 2.903 8.38 1.024 2.717 2.403 5.11 3.669 7.725 4.261 4.66 7.211 7.167 10.335 10.23 4.737 2.746-3.125 1.992-4.898 2.066"/></g></g><g transform="matrix(.06421 0 0 .06421 262.82-2194.44)" fill="#520"><g fill="#520"><path d="m3404.61 796.46c-22.294-14.964-43.12-21.59-58.29-46.15-19.431-17.531-16.594-20.498-20.333-43-11.43-25.25-2.526-53.629-3.645-77.54 8.882-26.467.866-39.631 4.775-66.34-2.713-52.647-1.04-106.4 4.01-159.16-5.743-22.14-1.033-58.754-2.7-88.12 3.285-46.2-6.999-89.57-2.86-134.64 4.562-25.679-3.49-74.8 4.91-85.5 11.435-15.07 14.238-46.21 25.697-66.61 10.605-11.232 11.199-33.19 25.19-44.719 7.703-21.15 31.691-40.665 34.984-68.21 9.223-42.731 8.166-83.23 16.232-126.25 4.588-24.719.339-53.46 5.74-78.55-.033-25.87 4.522-48.02 5.01-75.58-.535-23.553 2.862-45.947 4.294-68.942-.886-4.779-3.142-4.472-4.174-8.991-6.735-29.5 1.756-51.926 15.342-72.24 17.378-16.14 50.47-20 83.39-19.889 32.921.115 51.36 2.083 74.06 19.246 17.539 15.05 23.603 68.53 8.03 81.12 4.282 45.19 4.973 67.04 9.506 109.09 9.716 89.3 14.304 125.56 23.03 170.34 8.723 44.786 17.354 82.42 42.549 111.64 13.199 26.931 30.59 51.01 38.38 81.13 8.303 13.02 12.816 41.1 14.459 61.12 5.209 11.19 6.719 30.13 9.19 47.49-6.273 41.649-6.863 73.75-13.183 115.74 5.489 35.752-1.243 71.53 1.614 109.83 1.703 33.765.626 66.875 1.584 98.57-7.734 24.545 13.744 38.25 6.829 76.34 4.878 47.977 2.72 83.58 3.519 131.21-1.698 22.607-1.313 34.583-15.913 57.34-12.13 19.16-27.27 35.08-50.42 48.6-23.15 13.523-59.45 22.847-73.48 28.09-14.03 5.244-76.09 9.912-135.66 2.755-59.57-7.157-64.999-12-81.65-19.2"/><path d="m3715.47 635.31c-5.416.324-13.875 4.288-25.343 9.695-37.636 12.926-79.19 26.306-118.69 26.373-17.807-1.578-19.74 3.838-32.582-1.064-35.34-2.72-73.32-3.02-106.67-17.549-15.195-4.675-42.946-11.636-57.57-18.528-13.644-2.474-26.512-17.881-32.907-26.351-4.199-14.818-12.397-29.636-16.596-44.45-2.713-52.647-1.04-106.4 4.01-159.16-5.743-22.14-3.03-58.754-4.7-88.12 3.285-46.2-4.999-89.57-.86-134.64 4.562-25.679-3.49-74.8 4.91-85.5l30.04 15.582c43.68 38.649 97.28 53.32 195.94 53.01 64.3-1.486 129.5-10.45 172.86-47.12 8.293-5.931 18.586-11.862 26.879-17.792 5.209 11.19 6.719 30.13 9.19 47.49-6.273 41.649 1.137 73.75-5.183 115.74 5.489 35.752-1.243 71.53 1.614 109.83 1.703 33.765.626 66.875 1.584 98.57-7.734 24.545 5.744 38.25-1.171 76.34.837 8.234 1.173 16.458 1.158 24.672z"/></g><path d="m3472.08-505.09c-3.068 19.417 74.8 23.2 94 18 19.2-5.203 40.33-3.968 32-22-8.327-18.03-122.93-15.417-126 4" opacity=".92" fill="#000"/></g><g transform="matrix(.49481.02882-.03735.49636 54.26-1098.77)"><path d="m589.44-2177.64c-1.258-1.193-2.63-5.695-6.704-7.572-3.69-1.347-8.429.023-10.822.474-4.204 1.296-8.995 2.415-11.744 4.13-4.898.99-9.223-.355-15.762-.36-6.539-.01-8.01 2.14-10.657.282.5-2.105.443-1.071 1.843-2.62 1.566-1.241 2.063-1.896 13.201-4.872 11.138-2.976 13.476-3.758 21.395-4.902 7.919-1.144 11.528-1.527 10.795-1.527 1.741-.188 3.62.853 4.992 1.831 1.033 1.39 3.269 3.886 6.683 7.467 3.527 4.6 8.264 13.96 5.05 16.418-3.652 1.896-6.124-6.364-8.266-8.746"/><path d="m564.88-2183.15c6.897-.206 11.433 1.37 18.394 4.702 1.315 1.083 4.02 2.764 10.283 2.368 6.259-.396 7.329-1.3 8.636-3.103 4.079-1.723 5.838-1.369 8.851-1.876 3.252-.485 7.271-.797 10.463-.595 3.724-.312 7.102.332 10.136.163 2.212.362 5.937.354 7.791.925 3.526.356 7.525 1.189 10.808 1.572 1.922.049.923-1.799 6.525-6.944 5.603-5.146 5.08-4.508 7.2-3.424.799 2.803 2.612 5.543 2.589 8.924.795 4.871.929 10.01 1.191 15.03-.055 2.93.26 9.352-2.791 7.448-2.409-3.157-1.257-5.923-2.02-11.923-.763-5.999-.654-8.191-1.686-8.253-1.909 3.043-1.446 5.647-3.388 11.08-2.034 8.581-4.098 18.216-7.942 25.369-2.712 4.872-4.686 5.747-5.995 7.731-6.306 5.146-13.61 5.49-18.242 5.597-10.07.155-12.1-.987-13.609-.998-.802-.51-3.02-1.313-6.963-3.336-3.945-2.023-3.372-3.99-5.376-5.527-3.166-6.05-4.151-12.02-4.801-18.726-.305-2.845-2.609-7.304-7.04-4.457-1.692 1.707-1.884 4.4-4.665 13.749-2.78 9.349-5.322 11.122-10.556 14.02-10.04 3.669-14.728 1.962-23.646.959-7.02-1.975-9.143-3.451-12.311-10.317-1.1-2.533-1.991-5.892-2.327-8.901-.582-3.543-.028-6.774-.964-10.143-.499-2.288-.325-5.272-1.835-6.791-3.388-3.834-2.494-4.618-2.814-9.878.297-.84 1.641-2.848 8.374-4.097 6.812-.797 13.01-.413 19.366-.565 6.356-.153 6.773.149 8.365.206"/><g fill="#565656"><path d="m601.08-2169.1c2.517-1.01 1.802-1.692 3.979-1.905 1.047.18 5.832-2.817 22.432-2.381 16.6.436 20.575 1.873 22.296 5.365 2.532 3.362 1.137 6.364.414 9.904-1.729 4.557-1.409 9.813-4.473 13.829-1.233 3.061-2.169 4.854-4.869 6.832-1.872 1.926-4.184 3.936-14.814 4.302-10.63.367-13.669-.928-16.316-2.977-1.615-.152-4.293-1.88-5.295-3.527-3.846-6.783-3.695-11.934-5.272-19.727.172-4.72.501-8.093 1.916-9.716"/><path d="m540.57-2174.19c10.842-2.224 25.76-3.682 39.3 3.13.327.975 3 1.01 3.061 5.648-.068 9.03-3.752 17.18-7.592 24.17-2.216 2.852-6.782 4.568-10.452 4.403-3.54.203-9.648.05-13.223-1.122-4.525-1.477-7.503-1.794-10.37-5.261-2.851-5.568-4.708-13.835-4.47-19.858.37-7.209-3.096-9.852 3.748-11.11"/></g></g></g></g></svg>