<svg xmlns="http://www.w3.org/2000/svg" width="141.06" height="109.53" viewBox="0 0 141.05659 109.52502"><defs><clipPath><path fill="#5a33c9" d="m-1285.53 61.76h900v371.5h-900z"/></clipPath><clipPath><path opacity=".727" fill="#7d1f7d" d="m-826.38 651.09h321.31v110.92h-321.31z"/></clipPath></defs><g transform="translate(-381.43-730.4)" font-family="sans-serif" word-spacing="0" line-height="125%" letter-spacing="0" font-size="40"><text x="-1916.35" y="472.97"><tspan x="-1916.35" y="472.97"/></text><text x="-2744.35" y="474.25"><tspan x="-2744.35" y="474.25"/></text><text x="-497.28" y="723.93"><tspan x="-497.28" y="723.93"/></text><flowRoot transform="translate(-1-1)"><flowRegion><path d="m-938.78 806.96h263.83v147.29h-263.83z"/></flowRegion><flowPara/></flowRoot></g><g transform="translate(-381.43 2217.23)"><g font-family="sans-serif" word-spacing="0" line-height="125%" letter-spacing="0" font-size="40"><text x="701.57" y="-2326.18" writing-mode="tb-rl"><tspan x="-2326.18" y="701.57"/></text><text x="621.16" y="-483.1"><tspan x="621.16" y="-483.1"/></text><flowRoot transform="translate(-1-2948.64)"><flowRegion><path d="m246.33 2498.14h112.3v82.41h-112.3z"/></flowRegion><flowPara>Úģ»’”„‚'''''[</flowPara></flowRoot><text x="612.67" y="-2323.95"><tspan x="612.67" y="-2323.95"/></text></g><g transform="matrix(.43615 0 0 .43615 252.95-1183.41)"><path d="m475.7-2192.9c-89.63-3.598-200.93 11.657-178.1 21.828 22.833 10.171 52.74 11.622 66.872 15.191 13.01 3.285-14.867 7.319-29.17 8.946-31.578 3.592-23.73 14.3 48.17 22.721 71.9 8.421 152.79 6.563 169.56-8.719 16.774-15.282-31.99-9.511-26.388-13.988 12.07-9.646 43.14-.628 81.58-17.486 38.436-16.858-42.891-24.894-132.52-28.492" fill="#fff0e4"/><g fill="#fff"><path d="m405.37-2188.47l-34.31 2.066q-2.295 0-4.131-1.262-1.721-1.262-1.721-3.443 4.02-5.05 7.918-15.951 3.902-11.02 4.705-12.623 13.426-29.377 20.08-55.999 6.77-26.622 6.77-55.884 0-33.852-14.574-33.852-3.213 1.377-5.164 4.934-1.836 3.443-2.295 6.77-.918 8.721-4.02 8.721-3.098 0-3.098-4.246 0-4.246 1.262-8.721 1.262-4.59 4.246-8.377 2.984-3.787 6.885-3.787 9.869 0 15.951 7.459 6.082 7.459 6.426 17.672l-.459.459.689 17.213q0 19.16-5.279 46.819-5.279 27.655-12.623 44.06-.574 1.377-5.967 12.508-12.508 25.819-12.737 30.983l1.836.229q8.147-1.492 28.23-2.524l3.443 3.672-2.066 3.098" opacity=".98"/><path d="m412.27-2307.13l.229-37.639q1.377-2.295 2.525-7.803 1.262-5.623 2.525-7.918 2.639-4.705 11.705-4.705 2.295 0 6.426 2.41 4.131 2.295 6.311 4.475 2.295 2.066 3.787 5.05 1.607 2.869 2.639 4.934 1.033 2.066 1.721 6.082.803 3.901 1.148 5.623.803 5.393 1.148 9.41.459 3.902 1.377 10.787.918 6.885 1.033 8.262.229 1.377 1.033 7.688.918 6.197 1.033 8.262.229 1.951.803 7.574.689 5.508.918 8.262.229 2.754.574 7.688.459 4.82.574 8.147.459 7.918.459 14.344 0 6.426-.229 11.131-.23 4.59-.918 11.934-.574 7.229-2.18 13.197-1.492 5.852-3.787 11.36-5.05 11.934-15.377 11.934-2.18 0-7.574-2.984-11.131-6.885-17.213-87.44l1.033-.918-.229-16.754q-1.492-1.951-1.492-12.393m6.426 10.328l2.295 20.655q0 84.11 18.819 84.11 6.656 0 10.1-12.508 3.213-12.164 3.787-22.03.918-15.836.918-26.28 0-10.442-1.836-29.836-1.836-19.508-5.393-28.459v-10.1q-2.525-6.426-2.754-13.311-.23-6.885-1.148-10.787-.803-4.02-2.41-6.885-3.557-6.426-15.377-7.803-5.508 4.475-6.77 7.918-1.262 3.443-1.262 11.36l1.033 43.95" opacity=".98"/><path d="m504.67-2189.85l-28.918.918q-1.607 0-2.639-1.033-1.033-1.033-1.033-2.525l1.148-2.295 6.311.229q3.328 0 4.59-1.492 1.262-1.492 1.262-4.934 0-29.606-1.492-53.934-1.721-27.541-5.279-80.67l.23-8.03q0-6.885-2.18-10.787-2.18-4.02-8.606-4.02l-5.393.459q-4.02 0-4.02-2.524 0-3.328 20.655-3.328 1.607 0 2.639 1.148 1.148 1.148 1.148 2.639h.459q-.689 3.443-.689 9.07 0 5.508 1.721 20.311 1.836 14.803 1.836 25.13 0 10.328 1.951 36.606 1.951 26.16 1.951 33.393 0 7.115-.459 8.951 1.492 5.967 1.492 26.622l-.344 3.443 1.033.689 10.557-.689q7.229 0 7.229 3.328 0 3.328-5.164 3.328" opacity=".98"/><path d="m515.59-2365.42q0 6.541 4.705 61.737l-.344.229q0 .115 4.131.574 13.197 1.492 16.983 4.36 3.787 2.754 7.115 15.721 5.623 21.803 5.623 44.29 0 17.1-1.033 22.95-1.033 5.738-2.41 10.442-1.262 4.59-3.098 7.803-4.475 7.688-11.246 11.36h-1.262q-12.164 0-12.164-3.672 0-2.639 4.475-2.639l6.082 1.951q3.557 0 6.541-4.361 3.098-4.36 4.82-10.557 3.443-13.08 3.443-20.426 0-7.459-.574-16.869-.459-9.41-2.066-23.07-1.492-13.77-5.279-22.836-3.672-9.07-9.18-9.07h-5.393l-1.033.689-.689-.229-5.164 2.066q-4.361 0-5.279-3.672-.23-1.262-.344-3.787-.115-2.639-.23-3.557 1.148-6.656 1.148-13.656 0-7-2.754-23.639-2.639-16.639-2.869-24.557l2.41-2.295 18.02-.229q7.115 0 7.115 3.213l-2.639 2.18h-4.934l-.689.459-9.41-1.148-1.607.459-.918-.229m0 23.754q-.23 0-.23.229l.23-.229" opacity=".98"/></g></g></g></svg>