<svg xmlns="http://www.w3.org/2000/svg" width="498.69" viewBox="0 0 498.69357 282.23999"><defs><clipPath><path fill="#5a33c9" d="m-1285.53 61.76h900v371.5h-900z"/></clipPath><clipPath><path opacity=".727" fill="#7d1f7d" d="m-826.38 651.09h321.31v110.92h-321.31z"/></clipPath></defs><g transform="translate(0-2837.31)" font-family="sans-serif" word-spacing="0" line-height="125%" letter-spacing="0" font-size="40"><text x="-1916.35" y="472.97"><tspan x="-1916.35" y="472.97"/></text><text x="-2744.35" y="474.25"><tspan x="-2744.35" y="474.25"/></text><text x="-497.28" y="723.93"><tspan x="-497.28" y="723.93"/></text><flowRoot transform="translate(-1-1)"><flowRegion><path d="m-938.78 806.96h263.83v147.29h-263.83z"/></flowRegion><flowPara/></flowRoot></g><g transform="translate(0 110.32)"><g transform="matrix(.13449-.01133.01133.13449 153.75-175.69)"><path d="m-1351.34 2470.68l90-1068.09c132.09 2.382 204.29-.038 366.83 24.15 21.258-47.07-3.263-7.777 6.145-60.733 1.556-29.815-157.29-35.09-165.26-299.11-15.514-156.06 83.65-286.69 214.22-321.08 51.878-16.888 45.2-25.392 400.08-125.97l417.76-123.31c42.894-6.736 62.833-12.775 106.55 2.208 82.07 21.535 41.38 31.11 26.594 97.55-41.684 163.88-96.65 332.07-111.1 497.31 153.94-6.04 265.47-4.083 376.63 5.913 49.03-2.395 92.45 4.067 71.815 44.783 25.591 114.15 28.775 278.4 36.759 388.16 812.46 173.94 1486.93 563.84 1844.76 1248.46" fill="#1b8075"/><path d="m218.85 1455.19c-11.233-42.19 41.859-55 56.11-36.36 20.441 12.12 15.04 84-43.769 55.27 6.206 29.3-22.827 57.654-63.29 37.443-30.28-37.28 10.199-75.2 50.951-56.35m-142.19-11.131c10.381-16.908 29.69-15.368 41.856-12.361 24.787 5.567 42.32 31.971 22.999 60.57-25.324 39.34-98.67-.371-64.855-48.21m191.49-44.4c-18.634-14.161-23.397-34.31-9.21-56.21 9.105-24.914 54.31-14.363 64.45 8.581 8.729 29.964-29.604 58.46-55.24 47.633m10.112-73.41c-30.813-2.539-40.852-47.629-13.12-64.1 60.702-24.725 67.32 68.43 13.12 64.1m-820.71-1.551c-55.931-25.523-18.822-108.08 18.778-109.87-24.348-43.37-7.06-83.62 40.23-93.05-26.452-33.518 11.321-101.44 64.51-80.42-29.387-42.7 40.896-89.86 80.11-44.762-5.643-61.06 72.16-87.18 97.6-49.24 25.989-42.531 94.14-41.836 107.02 10.907 28.797-33.458 94.16-33.732 108.15 20.821 52.12-21.735 90.04 26.32 75.67 66.24 45.665-11.718 80.74 21.769 70.11 56.35 33.04-26.9 48.4-31.09 63.17-1.862 17.05-26.13 44.567-40.877 65.801-14.932 11.466 15.416-10.625 45.969 16.961 24.743 33.22 2.297 41.611 47.25 13.923 65.789 44.01 15.275 36.651 69.75-5.583 71.65-42.1 5.67-53.729-46.28-14.966-68.12-21.2 5.705-37.06-25.337-62.15-20.435-90.32 15.654-181.13 37.632-261.47 57.49 15.373 16.694 4.497 32.499-.388 39.34 33.428-10.312 49.15 36.19 36.698 58.62 43.64-7.649 62.769 25.792 50.2 63.22 46.02-13.882 62.3 55.26 44.09 71.53-42.41 45.88-95.86-14.674-75.27-58.28-39.597 7.184-57.61-25.11-43.38-62.772-31.17 11.401-74.42-13.442-57.18-51.97-43.26-2.988-53.13-13.228-63.784-22.461-130.22 24.907-248.02 51.58-368.85 71.49" fill="#fff"/></g><g transform="matrix(.03888.00889-.00889.03888 338.4 15.976)" fill="#1b8075"><path d="m-1101.07 577.95c-25.35.407-64.979-36.04-73.31-70.54-13.03-33.875-7.999-72.62 1.868-106.32-1.657-26.9 23.693-62.41 33.851-78.22 20.696-24.312 53.851-62.95 95.2-71.5 47.34-17.307 98.73-14.11 142.33 8.08 31.989 8.869 45.33 31.64 63.07 57.19 12.344 27.862 19.18 39.861 21.2 72.55 1.329 24.711 3.272 47.841-15.586 75.17 2.165 5.758-17.354 27.818-21.232 38.769-68.86 49.23-175.61 80.978-247.39 74.829" fill="#fff"/><path d="m-431.5 576.98c259.89-205.54-501.17-260.39-1038 82.87 448.16-433.47 451.14-504.55 587.95-849.32-449.07-72.12-786.75 471.63-709.16 930.86 508.81 104.44 896.36 43.47 1159.21-164.41"/></g><g font-family="sans-serif" word-spacing="0" line-height="125%" letter-spacing="0" font-size="40"><text x="701.57" y="-2326.18" writing-mode="tb-rl"><tspan x="-2326.18" y="701.57"/></text><text x="621.16" y="-483.1"><tspan x="621.16" y="-483.1"/></text><flowRoot transform="translate(-1-2948.64)"><flowRegion><path d="m246.33 2498.14h112.3v82.41h-112.3z"/></flowRegion><flowPara>Úģ»’”„‚'''''[</flowPara></flowRoot><text x="612.67" y="-2323.95"><tspan x="612.67" y="-2323.95"/></text></g></g></svg>